<?xml version="1.0" encoding="iso-8859-1"?>
<!-- Generator: Adobe Illustrator 26.0.1, SVG Export Plug-In . SVG Version: 6.00 Build 0)  -->
<svg version="1.1" id="Layer_1" xmlns="http://www.w3.org/2000/svg" xmlns:xlink="http://www.w3.org/1999/xlink" x="0px" y="0px"
	 viewBox="0 0 500 500" style="enable-background:new 0 0 500 500;" xml:space="preserve">
<g id="watermark_1_">
	<g>
		<g id="watermark" style="opacity:0.61;">
			<g>
				<g>
					<g>
						<g>
							<polygon style="fill:#FFFFFF;" points="213.765,461.172 208.204,474.017 205.268,474.017 199.726,461.172 202.938,461.172 
								206.846,470.347 210.81,461.172 							"/>
						</g>
						<g>
							<path style="fill:#FFFFFF;" d="M223.507,469.741h-7.469c0.275,1.23,1.321,1.982,2.826,1.982c1.046,0,1.798-0.312,2.477-0.954
								l1.523,1.651c-0.917,1.046-2.294,1.597-4.074,1.597c-3.413,0-5.634-2.147-5.634-5.083c0-2.954,2.257-5.083,5.267-5.083
								c2.899,0,5.138,1.945,5.138,5.12C223.562,469.191,223.526,469.503,223.507,469.741 M216.002,468.071h4.863
								c-0.202-1.248-1.138-2.055-2.422-2.055C217.139,466.016,216.204,466.805,216.002,468.071"/>
						</g>
						<g>
							<path style="fill:#FFFFFF;" d="M224.735,468.934c0-2.973,2.294-5.083,5.505-5.083c2.074,0,3.707,0.899,4.423,2.514
								l-2.22,1.193c-0.532-0.936-1.321-1.358-2.221-1.358c-1.45,0-2.587,1.009-2.587,2.734c0,1.725,1.138,2.734,2.587,2.734
								c0.899,0,1.688-0.404,2.221-1.358l2.22,1.211c-0.716,1.578-2.349,2.495-4.423,2.495
								C227.029,474.017,224.735,471.907,224.735,468.934"/>
						</g>
						<g>
							<path style="fill:#FFFFFF;" d="M242.828,473.393c-0.587,0.422-1.45,0.624-2.331,0.624c-2.33,0-3.688-1.193-3.688-3.542
								v-4.055h-1.523v-2.202h1.523v-2.404h2.863v2.404h2.459v2.202h-2.459v4.019c0,0.844,0.458,1.303,1.229,1.303
								c0.422,0,0.844-0.128,1.156-0.367L242.828,473.393z"/>
						</g>
					</g>
					<g>
						<path style="fill:#FFFFFF;" d="M262.474,463.997v2.643c-0.238-0.018-0.422-0.037-0.642-0.037
							c-1.578,0-2.624,0.862-2.624,2.753v4.661h-2.863v-9.873h2.734v1.303C259.776,464.493,260.951,463.997,262.474,463.997"/>
					</g>
					<g>
						<path style="fill:#FFFFFF;" d="M263.299,472.53l1.009-2.239c1.083,0.789,2.697,1.339,4.239,1.339
							c1.762,0,2.477-0.587,2.477-1.376c0-2.404-7.469-0.752-7.469-5.524c0-2.184,1.762-4,5.413-4c1.615,0,3.267,0.385,4.459,1.138
							l-0.918,2.257c-1.193-0.679-2.422-1.009-3.56-1.009c-1.761,0-2.44,0.66-2.44,1.468c0,2.367,7.468,0.734,7.468,5.45
							c0,2.147-1.78,3.982-5.45,3.982C266.492,474.017,264.437,473.411,263.299,472.53"/>
					</g>
					<g>
						<path style="fill:#FFFFFF;" d="M285.428,469.741h-7.469c0.275,1.23,1.321,1.982,2.826,1.982c1.046,0,1.798-0.312,2.477-0.954
							l1.523,1.651c-0.918,1.046-2.294,1.597-4.074,1.597c-3.413,0-5.634-2.147-5.634-5.083c0-2.954,2.257-5.083,5.267-5.083
							c2.9,0,5.138,1.945,5.138,5.12C285.484,469.191,285.447,469.503,285.428,469.741 M277.923,468.071h4.863
							c-0.202-1.248-1.138-2.055-2.422-2.055C279.061,466.016,278.125,466.805,277.923,468.071"/>
					</g>
					<g>
						<path style="fill:#FFFFFF;" d="M297.007,469.741h-7.469c0.275,1.23,1.321,1.982,2.826,1.982c1.046,0,1.798-0.312,2.477-0.954
							l1.523,1.651c-0.918,1.046-2.294,1.597-4.074,1.597c-3.413,0-5.634-2.147-5.634-5.083c0-2.954,2.257-5.083,5.267-5.083
							c2.899,0,5.138,1.945,5.138,5.12C297.062,469.191,297.025,469.503,297.007,469.741 M289.501,468.071h4.863
							c-0.202-1.248-1.138-2.055-2.422-2.055C290.639,466.016,289.703,466.805,289.501,468.071"/>
					</g>
					<g>
						<polygon style="fill:#FFFFFF;" points="303.208,470.145 301.831,471.503 301.831,474.017 298.969,474.017 298.969,460.401 
							301.831,460.401 301.831,468.108 306.016,464.144 309.429,464.144 305.318,468.328 309.796,474.017 306.327,474.017 						"/>
					</g>
					<g>
						<path style="fill:#FFFFFF;" d="M256.601,475.359L256.601,475.359l-2.86-2.86c-0.435,0.508-0.953,0.943-1.534,1.284
							c-0.092,0.069-0.186,0.136-0.283,0.199l3.027,3.027c0.456,0.456,1.195,0.456,1.65,0
							C257.057,476.554,257.057,475.815,256.601,475.359"/>
					</g>
					<g>
						<path style="fill:#FFFFFF;" d="M249.984,463.244c0.221-0.173,0.495-0.281,0.797-0.281c0.042,0,0.083,0.002,0.124,0.006
							c-0.214-0.156-0.478-0.249-0.764-0.249c-0.395,0-0.744,0.18-0.981,0.458c-0.051,0-0.1,0.006-0.151,0.008
							c0.039-0.077,0.064-0.162,0.064-0.255c0-0.234-0.143-0.434-0.346-0.519c0.087,0.126,0.138,0.279,0.138,0.445
							c0,0.122-0.031,0.237-0.081,0.341c-2.811,0.201-5.03,2.539-5.03,5.4c0,2.993,2.426,5.42,5.42,5.42
							c2.993,0,5.42-2.426,5.42-5.42C254.595,465.879,252.593,463.635,249.984,463.244 M247.983,464.656
							c0.435,0,0.844,0.112,1.199,0.309c0.374-0.245,0.82-0.387,1.299-0.387c0.711,0,1.348,0.312,1.784,0.806
							c-0.435-0.379-1.004-0.61-1.627-0.61c-0.449,0-0.87,0.12-1.234,0.329c-0.079,0.046-0.156,0.096-0.229,0.15
							c-0.065-0.048-0.133-0.093-0.204-0.134c-0.369-0.219-0.8-0.344-1.26-0.344c-0.3,0-0.588,0.054-0.854,0.152
							C247.196,464.754,247.578,464.656,247.983,464.656 M251.772,469.098c0.115,0.305,0.181,0.634,0.181,0.979
							c0,1.534-1.244,2.777-2.778,2.777c-1.534,0-2.777-1.243-2.777-2.777c0-0.345,0.066-0.674,0.181-0.979
							c-0.62-0.382-1.035-1.064-1.035-1.846c0-1.197,0.971-2.168,2.168-2.168c0.565,0,1.078,0.218,1.463,0.572
							c0.386-0.354,0.899-0.572,1.464-0.572c1.197,0,2.168,0.971,2.168,2.168C252.807,468.034,252.392,468.716,251.772,469.098"/>
					</g>
					<g>
						<path style="fill:#FFFFFF;" d="M251.666,467.061c0,0.497-0.404,0.901-0.901,0.901c-0.497,0-0.901-0.404-0.901-0.901
							s0.404-0.901,0.901-0.901c0.101,0,0.197,0.017,0.287,0.047c-0.03,0.062-0.045,0.132-0.045,0.204
							c0,0.273,0.221,0.494,0.494,0.494c0.05,0,0.099-0.008,0.146-0.022C251.66,466.941,251.666,467,251.666,467.061"/>
					</g>
					<g>
						<path style="fill:#FFFFFF;" d="M248.255,467.061c0,0.376-0.305,0.681-0.681,0.681c-0.376,0-0.681-0.305-0.681-0.681
							s0.305-0.681,0.681-0.681c0.076,0,0.149,0.013,0.217,0.035c-0.023,0.047-0.034,0.1-0.034,0.155
							c0,0.206,0.167,0.374,0.374,0.374c0.038,0,0.075-0.006,0.11-0.017C248.25,466.97,248.255,467.015,248.255,467.061"/>
					</g>
					<g>
						<g>
							<g>
								<rect x="242.908" y="467.83" style="fill:#FFFFFF;" width="0.616" height="0.616"/>
							</g>
							<g>
								<rect x="254.827" y="467.83" style="fill:#FFFFFF;" width="0.616" height="0.616"/>
							</g>
							<g>
								<path style="fill:#FFFFFF;" d="M255.205,468.082h-0.14c0-3.248-2.642-5.89-5.89-5.89c-3.248,0-5.89,2.642-5.89,5.89h-0.14
									c0-1.611,0.627-3.125,1.766-4.264c1.139-1.139,2.653-1.766,4.264-1.766c1.611,0,3.125,0.627,4.264,1.766
									C254.578,464.957,255.205,466.471,255.205,468.082"/>
							</g>
						</g>
						<g>
							<rect x="248.868" y="461.814" style="fill:#FFFFFF;" width="0.616" height="0.616"/>
						</g>
						<g>
							<rect x="244.95" y="462.052" style="fill:#FFFFFF;" width="8.45" height="0.14"/>
						</g>
						<g>
							<path style="fill:#FFFFFF;" d="M245.174,462.15c0,0.108-0.088,0.196-0.196,0.196c-0.108,0-0.196-0.088-0.196-0.196
								c0-0.108,0.088-0.196,0.196-0.196C245.086,461.954,245.174,462.042,245.174,462.15"/>
						</g>
						<g>
							<path style="fill:#FFFFFF;" d="M253.596,462.15c0,0.108-0.088,0.196-0.196,0.196c-0.108,0-0.196-0.088-0.196-0.196
								c0-0.108,0.088-0.196,0.196-0.196C253.509,461.954,253.596,462.042,253.596,462.15"/>
						</g>
					</g>
				</g>
				<g>
					<path style="fill:#FFFFFF;" d="M314.356,473.409c0,1.559-2.364,1.559-2.364,0C311.993,471.851,314.356,471.851,314.356,473.409
						z"/>
				</g>
				<g>
					<g>
						<g>
							<path style="fill:#FFFFFF;" d="M161.739,466.549l1.772,6.088l1.855-6.088h2.215l-2.823,8.14h-2.33l-0.837-2.396l-0.722-2.708
								l-0.722,2.708l-0.837,2.396h-2.33l-2.839-8.14h2.231l1.855,6.088l1.756-6.088H161.739z"/>
						</g>
						<g>
							<path style="fill:#FFFFFF;" d="M176.713,466.549l1.772,6.088l1.855-6.088h2.215l-2.823,8.14h-2.33l-0.837-2.396l-0.722-2.708
								l-0.722,2.708l-0.837,2.396h-2.33l-2.839-8.14h2.231l1.855,6.088l1.756-6.088H176.713z"/>
						</g>
						<g>
							<path style="fill:#FFFFFF;" d="M191.687,466.549l1.772,6.088l1.855-6.088h2.215l-2.823,8.14h-2.33l-0.837-2.396l-0.722-2.708
								l-0.722,2.708l-0.837,2.396h-2.33l-2.839-8.14h2.231l1.855,6.088l1.756-6.088H191.687z"/>
						</g>
					</g>
					<g>
						<path style="fill:#FFFFFF;" d="M200.908,473.52c0,1.559-2.364,1.559-2.364,0C198.545,471.962,200.908,471.962,200.908,473.52z
							"/>
					</g>
					<g>
						<path style="fill:#FFFFFF;" d="M322.71,473.409c-0.935,0.919-1.919,1.28-3.117,1.28c-2.346,0-4.3-1.411-4.3-4.282
							s1.953-4.284,4.3-4.284c1.149,0,2.035,0.329,2.921,1.199l-1.264,1.329c-0.476-0.428-1.066-0.64-1.623-0.64
							c-1.346,0-2.33,0.985-2.33,2.396c0,1.542,1.05,2.362,2.297,2.362c0.64,0,1.28-0.18,1.772-0.672L322.71,473.409z"/>
					</g>
					<g>
						<path style="fill:#FFFFFF;" d="M331.805,470.472c0,2.33-1.591,4.217-4.217,4.217c-2.626,0-4.201-1.887-4.201-4.217
							c0-2.314,1.609-4.217,4.185-4.217C330.149,466.255,331.805,468.158,331.805,470.472z M325.389,470.472
							c0,1.231,0.739,2.38,2.199,2.38c1.46,0,2.199-1.149,2.199-2.38c0-1.215-0.854-2.396-2.199-2.396
							C326.144,468.077,325.389,469.258,325.389,470.472z"/>
					</g>
					<g>
						<path style="fill:#FFFFFF;" d="M338.572,474.689v-4.332c0-1.068-0.559-2.035-1.658-2.035c-1.082,0-1.722,0.967-1.722,2.035
							v4.332h-2.003v-8.107h1.855l0.148,0.985c0.426-0.82,1.362-1.116,2.133-1.116c0.969,0,1.937,0.394,2.396,1.51
							c0.723-1.149,1.658-1.478,2.708-1.478c2.297,0,3.43,1.412,3.43,3.84v4.365h-2.003v-4.365c0-1.066-0.442-1.97-1.526-1.97
							c-1.082,0-1.756,0.935-1.756,2.003v4.332H338.572z"/>
					</g>
				</g>
			</g>
		</g>
		<g style="opacity:0.61;">
			<g>
				<g>
					<path style="fill:#FFFFFF;" d="M345.988,431.299c-0.006-1.224-0.959-2.121-2.189-2.14c-0.924-0.014-0.832,0.12-0.834-0.867
						c-0.003-1.097-0.007-2.194,0.003-3.292c0.003-0.379-0.112-0.691-0.362-0.976c-2.342-2.668-4.678-5.342-7.019-8.011
						c-0.12-0.137-0.275-0.244-0.414-0.366c-6.214,0-12.427,0-18.641,0c-0.794,0.293-1.14,0.868-1.138,1.709
						c0.01,3.748,0.004,7.496,0.004,11.243c0,0.556-0.003,0.589-0.55,0.551c-1.497-0.102-2.516,0.986-2.497,2.492
						c0.044,3.476,0.013,6.953,0.014,10.429c0.001,1.58,0.867,2.443,2.45,2.449c0.582,0.002,0.582,0.002,0.582,0.6
						c0,2.219-0.001,4.438,0.001,6.657c0.001,1.192,0.58,1.771,1.768,1.771c8.013,0.001,16.027,0.001,24.04,0
						c1.168,0,1.755-0.583,1.757-1.745c0.002-2.256,0-4.512,0.001-6.768c0-0.512,0.002-0.511,0.52-0.515
						c0.271-0.002,0.541,0.008,0.809-0.058c0.996-0.246,1.69-1.044,1.694-2.069C346.003,438.696,346.005,434.997,345.988,431.299z
						 M317.537,417.162c5.337,0,10.674,0,16.01,0c0.548,0,0.554,0.007,0.554,0.561c0.001,2.243-0.001,4.486,0.001,6.73
						c0.001,0.811,0.249,1.059,1.06,1.059c1.91,0.001,3.821,0,5.731,0.001c0.458,0,0.479,0.021,0.481,0.483
						c0.003,0.887,0.002,1.775,0,2.662c-0.001,0.477-0.024,0.498-0.504,0.499c-3.895,0.001-7.79,0-11.684,0
						c-3.882,0-7.765,0-11.647,0c-0.55,0-0.552-0.001-0.552-0.561c-0.001-3.624-0.001-7.247,0-10.871
						C316.987,417.166,316.991,417.162,317.537,417.162z M340.822,451.579c-3.883,0.001-7.766,0-11.65,0c-3.871,0-7.742,0-11.613,0
						c-0.572,0-0.574-0.002-0.574-0.579c-0.001-1.997-0.001-3.994,0.001-5.991c0-0.464,0.023-0.486,0.478-0.487
						c7.803-0.001,15.607-0.001,23.41,0c0.478,0,0.499,0.02,0.499,0.503c0.002,1.997,0.001,3.994,0,5.991
						C341.375,451.574,341.37,451.579,340.822,451.579z"/>
				</g>
				<g>
					<g>
						<rect x="327.418" y="417.053" style="fill:#FFFFFF;" width="1.757" height="1.054"/>
					</g>
					<g>
						<rect x="325.662" y="418.107" style="fill:#FFFFFF;" width="1.757" height="1.054"/>
					</g>
					<g>
						<rect x="327.418" y="419.161" style="fill:#FFFFFF;" width="1.757" height="1.054"/>
					</g>
					<g>
						<rect x="325.662" y="420.215" style="fill:#FFFFFF;" width="1.757" height="1.054"/>
					</g>
					<g>
						<rect x="327.418" y="421.269" style="fill:#FFFFFF;" width="1.757" height="1.054"/>
					</g>
					<g>
						<rect x="325.662" y="422.323" style="fill:#FFFFFF;" width="1.757" height="1.054"/>
					</g>
					<g>
						<rect x="327.418" y="423.378" style="fill:#FFFFFF;" width="1.757" height="1.054"/>
					</g>
					<g>
						<rect x="325.662" y="424.432" style="fill:#FFFFFF;" width="1.757" height="1.054"/>
					</g>
					<g>
						<rect x="327.418" y="425.486" style="fill:#FFFFFF;" width="1.757" height="1.054"/>
					</g>
					<g>
						<rect x="325.662" y="426.54" style="fill:#FFFFFF;" width="1.757" height="1.054"/>
					</g>
					<g>
						<rect x="327.418" y="427.594" style="fill:#FFFFFF;" width="1.757" height="1.054"/>
					</g>
					<g>
						<rect x="325.662" y="428.648" style="fill:#FFFFFF;" width="1.757" height="1.054"/>
					</g>
				</g>
			</g>
			<g>
				<path style="fill:#FFFFFF;" d="M187.637,431.299c-0.006-1.224-0.959-2.121-2.189-2.14c-0.924-0.014-0.832,0.12-0.834-0.867
					c-0.003-1.097-0.007-2.194,0.003-3.292c0.003-0.379-0.112-0.691-0.362-0.976c-2.342-2.668-4.678-5.342-7.019-8.011
					c-0.12-0.137-0.275-0.244-0.414-0.366c-6.214,0-12.427,0-18.641,0c-0.794,0.293-1.14,0.868-1.138,1.709
					c0.01,3.748,0.004,7.496,0.004,11.243c0,0.556-0.003,0.589-0.55,0.551c-1.497-0.102-2.516,0.986-2.497,2.492
					c0.044,3.476,0.013,6.953,0.014,10.429c0.001,1.58,0.867,2.443,2.45,2.449c0.582,0.002,0.582,0.002,0.582,0.6
					c0,2.219-0.001,4.438,0.001,6.657c0.001,1.192,0.58,1.771,1.768,1.771c8.013,0.001,16.027,0.001,24.04,0
					c1.168,0,1.755-0.583,1.757-1.745c0.002-2.256,0-4.512,0.001-6.768c0-0.512,0.002-0.511,0.52-0.515
					c0.271-0.002,0.541,0.008,0.809-0.058c0.996-0.246,1.69-1.044,1.694-2.069C187.652,438.696,187.655,434.997,187.637,431.299z
					 M159.187,417.162c5.337,0,10.674,0,16.01,0c0.548,0,0.554,0.007,0.554,0.561c0.001,2.243-0.001,4.486,0.001,6.73
					c0.001,0.811,0.249,1.059,1.06,1.059c1.91,0.001,3.821,0,5.731,0.001c0.458,0,0.479,0.021,0.481,0.483
					c0.003,0.887,0.002,1.775,0,2.662c-0.001,0.477-0.024,0.498-0.504,0.499c-3.895,0.001-7.79,0-11.684,0
					c-3.882,0-7.765,0-11.647,0c-0.55,0-0.552-0.001-0.552-0.561c-0.001-3.624-0.001-7.247,0-10.871
					C158.636,417.166,158.64,417.162,159.187,417.162z M182.472,451.579c-3.883,0.001-7.766,0-11.65,0c-3.871,0-7.742,0-11.613,0
					c-0.572,0-0.574-0.002-0.574-0.579c-0.001-1.997-0.001-3.994,0.001-5.991c0-0.464,0.023-0.486,0.478-0.487
					c7.803-0.001,15.607-0.001,23.41,0c0.478,0,0.499,0.02,0.499,0.503c0.002,1.997,0.001,3.994,0,5.991
					C183.024,451.574,183.019,451.579,182.472,451.579z"/>
			</g>
			<g>
				<path style="fill:#FFFFFF;" d="M159.779,440.669v-7.897h2.779c0.375,0,0.726,0.061,1.053,0.182
					c0.327,0.121,0.612,0.292,0.855,0.513c0.242,0.221,0.434,0.483,0.573,0.789c0.14,0.305,0.21,0.642,0.21,1.009
					c0,0.375-0.07,0.715-0.21,1.02c-0.14,0.305-0.331,0.568-0.573,0.789c-0.243,0.221-0.528,0.392-0.855,0.513
					c-0.327,0.121-0.678,0.182-1.053,0.182h-1.29v2.901H159.779z M162.58,436.356c0.39,0,0.684-0.111,0.882-0.331
					c0.199-0.22,0.298-0.474,0.298-0.761c0-0.14-0.024-0.276-0.072-0.408c-0.048-0.132-0.121-0.248-0.221-0.347
					c-0.099-0.099-0.223-0.178-0.37-0.237c-0.147-0.059-0.32-0.089-0.518-0.089h-1.312v2.173H162.58z"/>
				<path style="fill:#FFFFFF;" d="M166.308,432.771h1.731l3.177,5.294h0.088l-0.088-1.522v-3.772h1.478v7.897h-1.566l-3.353-5.592
					h-0.088l0.088,1.522v4.07h-1.467V432.771z"/>
				<path style="fill:#FFFFFF;" d="M177.922,436.334h3.872c0.022,0.089,0.04,0.195,0.055,0.32c0.014,0.125,0.022,0.25,0.022,0.375
					c0,0.507-0.077,0.985-0.231,1.434c-0.154,0.449-0.397,0.849-0.728,1.202c-0.353,0.375-0.776,0.666-1.268,0.871
					c-0.493,0.206-1.055,0.309-1.688,0.309c-0.574,0-1.114-0.103-1.622-0.309c-0.507-0.206-0.948-0.492-1.323-0.86
					c-0.375-0.367-0.673-0.803-0.894-1.307c-0.221-0.504-0.331-1.053-0.331-1.649c0-0.595,0.11-1.145,0.331-1.649
					c0.221-0.504,0.518-0.939,0.894-1.307c0.375-0.367,0.816-0.654,1.323-0.86c0.507-0.206,1.048-0.309,1.622-0.309
					c0.64,0,1.211,0.11,1.715,0.331c0.504,0.221,0.935,0.526,1.296,0.915l-1.025,1.004c-0.258-0.272-0.544-0.48-0.861-0.623
					c-0.316-0.143-0.695-0.215-1.136-0.215c-0.361,0-0.703,0.065-1.026,0.193c-0.324,0.129-0.607,0.311-0.85,0.546
					c-0.242,0.235-0.436,0.52-0.579,0.855c-0.143,0.335-0.215,0.708-0.215,1.119c0,0.412,0.072,0.785,0.215,1.12
					c0.143,0.335,0.338,0.62,0.584,0.855c0.246,0.235,0.531,0.418,0.855,0.546c0.323,0.129,0.669,0.193,1.037,0.193
					c0.419,0,0.773-0.061,1.064-0.182c0.29-0.121,0.538-0.278,0.744-0.469c0.148-0.132,0.275-0.3,0.381-0.502
					c0.106-0.202,0.189-0.428,0.248-0.678h-2.482V436.334z"/>
			</g>
			<g>
				<path style="fill:#FFFFFF;" d="M224.019,431.299c-0.006-1.224-0.959-2.121-2.189-2.14c-0.924-0.014-0.832,0.12-0.834-0.867
					c-0.003-1.097-0.007-2.194,0.003-3.292c0.003-0.379-0.112-0.691-0.362-0.976c-2.342-2.668-4.678-5.342-7.019-8.011
					c-0.12-0.137-0.275-0.244-0.414-0.366c-6.214,0-12.427,0-18.641,0c-0.794,0.293-1.14,0.868-1.138,1.709
					c0.01,3.748,0.004,7.496,0.004,11.243c0,0.556-0.003,0.589-0.55,0.551c-1.497-0.102-2.516,0.986-2.497,2.492
					c0.044,3.476,0.013,6.953,0.014,10.429c0.001,1.58,0.867,2.443,2.45,2.449c0.582,0.002,0.582,0.002,0.582,0.6
					c0,2.219-0.001,4.438,0.001,6.657c0.001,1.192,0.58,1.771,1.768,1.771c8.013,0.001,16.027,0.001,24.04,0
					c1.168,0,1.755-0.583,1.757-1.745c0.002-2.256,0-4.512,0.001-6.768c0-0.512,0.002-0.511,0.52-0.515
					c0.271-0.002,0.541,0.008,0.809-0.058c0.997-0.246,1.69-1.044,1.694-2.069C224.034,438.696,224.036,434.997,224.019,431.299z
					 M195.568,417.162c5.337,0,10.674,0,16.01,0c0.548,0,0.554,0.007,0.554,0.561c0.001,2.243-0.001,4.486,0.001,6.73
					c0.001,0.811,0.249,1.059,1.06,1.059c1.91,0.001,3.821,0,5.731,0.001c0.458,0,0.479,0.021,0.481,0.483
					c0.003,0.887,0.002,1.775,0,2.662c-0.001,0.477-0.024,0.498-0.504,0.499c-3.895,0.001-7.79,0-11.684,0
					c-3.882,0-7.765,0-11.647,0c-0.55,0-0.552-0.001-0.552-0.561c-0.001-3.624-0.001-7.247,0-10.871
					C195.018,417.166,195.022,417.162,195.568,417.162z M218.854,451.579c-3.883,0.001-7.766,0-11.65,0c-3.871,0-7.742,0-11.613,0
					c-0.572,0-0.574-0.002-0.574-0.579c-0.001-1.997-0.001-3.994,0.001-5.991c0-0.464,0.023-0.486,0.478-0.487
					c7.803-0.001,15.607-0.001,23.41,0c0.478,0,0.499,0.02,0.499,0.503c0.002,1.997,0.001,3.994,0,5.991
					C219.406,451.574,219.401,451.579,218.854,451.579z"/>
			</g>
			<g>
				<path style="fill:#FFFFFF;" d="M205.111,432.771h1.699l2.967,7.897h-1.644l-0.651-1.886h-3.044l-0.651,1.886h-1.643
					L205.111,432.771z M206.997,437.415l-0.706-1.974l-0.287-0.96h-0.088l-0.287,0.96l-0.706,1.974H206.997z"/>
				<path style="fill:#FFFFFF;" d="M211.331,434.536c-0.125,0-0.245-0.024-0.359-0.072c-0.114-0.048-0.213-0.114-0.298-0.199
					c-0.084-0.084-0.151-0.182-0.198-0.292c-0.048-0.11-0.072-0.232-0.072-0.364s0.024-0.254,0.072-0.364
					c0.048-0.11,0.114-0.208,0.198-0.292c0.084-0.084,0.184-0.151,0.298-0.198c0.114-0.048,0.233-0.072,0.359-0.072
					c0.257,0,0.478,0.09,0.662,0.27c0.184,0.181,0.276,0.399,0.276,0.656s-0.092,0.476-0.276,0.656
					C211.809,434.446,211.589,434.536,211.331,434.536z M210.615,440.669v-5.404h1.445v5.404H210.615z"/>
			</g>
			<g>
				<path style="fill:#FFFFFF;" d="M261.044,431.299c-0.006-1.224-0.959-2.121-2.189-2.14c-0.924-0.014-0.832,0.12-0.834-0.867
					c-0.003-1.097-0.007-2.194,0.003-3.292c0.003-0.379-0.112-0.691-0.362-0.976c-2.342-2.668-4.678-5.342-7.019-8.011
					c-0.12-0.137-0.275-0.244-0.414-0.366c-6.214,0-12.427,0-18.641,0c-0.794,0.293-1.14,0.868-1.138,1.709
					c0.01,3.748,0.004,7.496,0.004,11.243c0,0.556-0.003,0.589-0.55,0.551c-1.497-0.102-2.516,0.986-2.497,2.492
					c0.044,3.476,0.013,6.953,0.014,10.429c0.001,1.58,0.867,2.443,2.45,2.449c0.582,0.002,0.582,0.002,0.582,0.6
					c0,2.219-0.001,4.438,0.001,6.657c0.001,1.192,0.58,1.771,1.768,1.771c8.013,0.001,16.027,0.001,24.04,0
					c1.168,0,1.755-0.583,1.757-1.745c0.002-2.256,0-4.512,0.001-6.768c0-0.512,0.002-0.511,0.52-0.515
					c0.271-0.002,0.541,0.008,0.809-0.058c0.996-0.246,1.69-1.044,1.694-2.069C261.059,438.696,261.061,434.997,261.044,431.299z
					 M232.593,417.162c5.337,0,10.674,0,16.01,0c0.548,0,0.554,0.007,0.554,0.561c0.001,2.243-0.001,4.486,0.001,6.73
					c0.001,0.811,0.249,1.059,1.06,1.059c1.91,0.001,3.821,0,5.731,0.001c0.458,0,0.479,0.021,0.481,0.483
					c0.003,0.887,0.002,1.775,0,2.662c-0.001,0.477-0.024,0.498-0.504,0.499c-3.895,0.001-7.79,0-11.684,0
					c-3.882,0-7.765,0-11.647,0c-0.55,0-0.552-0.001-0.552-0.561c-0.001-3.624-0.001-7.247,0-10.871
					C232.042,417.166,232.047,417.162,232.593,417.162z M255.878,451.579c-3.883,0.001-7.766,0-11.65,0c-3.871,0-7.742,0-11.613,0
					c-0.572,0-0.574-0.002-0.574-0.579c-0.001-1.997-0.001-3.994,0.001-5.991c0-0.464,0.023-0.486,0.478-0.487
					c7.803-0.001,15.607-0.001,23.41,0c0.478,0,0.499,0.02,0.499,0.503c0.002,1.997,0.001,3.994,0,5.991
					C256.431,451.574,256.426,451.579,255.878,451.579z"/>
			</g>
			<g>
				<path style="fill:#FFFFFF;" d="M236.361,440.845c-0.338,0-0.662-0.048-0.971-0.143c-0.309-0.095-0.592-0.239-0.849-0.43
					c-0.257-0.191-0.481-0.425-0.673-0.7c-0.191-0.276-0.342-0.597-0.452-0.965l1.401-0.551c0.103,0.397,0.283,0.726,0.54,0.987
					c0.257,0.261,0.596,0.392,1.015,0.392c0.154,0,0.303-0.02,0.447-0.061c0.143-0.04,0.272-0.099,0.386-0.176
					s0.204-0.175,0.27-0.292c0.066-0.118,0.099-0.254,0.099-0.408c0-0.147-0.026-0.279-0.077-0.397
					c-0.051-0.117-0.138-0.227-0.259-0.331c-0.121-0.103-0.28-0.202-0.475-0.298c-0.195-0.095-0.435-0.195-0.722-0.298l-0.485-0.176
					c-0.213-0.073-0.429-0.173-0.645-0.298c-0.217-0.125-0.413-0.276-0.59-0.452c-0.177-0.176-0.322-0.384-0.436-0.623
					c-0.114-0.239-0.171-0.509-0.171-0.81c0-0.309,0.06-0.597,0.182-0.866c0.121-0.268,0.294-0.503,0.518-0.706
					c0.224-0.202,0.492-0.36,0.805-0.474s0.66-0.171,1.042-0.171c0.397,0,0.74,0.053,1.031,0.16
					c0.291,0.107,0.537,0.243,0.739,0.408c0.202,0.165,0.366,0.348,0.491,0.546c0.125,0.199,0.217,0.386,0.276,0.563l-1.312,0.551
					c-0.074-0.221-0.208-0.419-0.402-0.596c-0.195-0.176-0.462-0.265-0.8-0.265c-0.324,0-0.592,0.075-0.805,0.226
					c-0.213,0.151-0.32,0.348-0.32,0.59c0,0.235,0.103,0.436,0.309,0.601c0.206,0.165,0.533,0.325,0.982,0.48l0.497,0.165
					c0.316,0.111,0.605,0.237,0.866,0.381c0.261,0.143,0.485,0.314,0.673,0.513c0.187,0.199,0.331,0.425,0.43,0.678
					c0.1,0.254,0.149,0.546,0.149,0.877c0,0.412-0.083,0.767-0.248,1.064c-0.165,0.298-0.377,0.542-0.634,0.734
					c-0.258,0.191-0.548,0.335-0.872,0.43C236.986,440.797,236.67,440.845,236.361,440.845z"/>
				<path style="fill:#FFFFFF;" d="M239.516,432.771h1.61l1.633,4.754l0.287,1.015h0.088l0.309-1.015l1.699-4.754h1.61l-2.879,7.897
					h-1.566L239.516,432.771z"/>
				<path style="fill:#FFFFFF;" d="M251.097,436.334h3.871c0.022,0.089,0.04,0.195,0.055,0.32c0.015,0.125,0.023,0.25,0.023,0.375
					c0,0.507-0.078,0.985-0.232,1.434c-0.154,0.449-0.397,0.849-0.728,1.202c-0.353,0.375-0.775,0.666-1.268,0.871
					c-0.493,0.206-1.055,0.309-1.688,0.309c-0.574,0-1.114-0.103-1.621-0.309c-0.507-0.206-0.949-0.492-1.324-0.86
					c-0.375-0.367-0.673-0.803-0.894-1.307c-0.22-0.504-0.331-1.053-0.331-1.649c0-0.595,0.11-1.145,0.331-1.649
					c0.221-0.504,0.518-0.939,0.894-1.307c0.375-0.367,0.816-0.654,1.324-0.86c0.507-0.206,1.047-0.309,1.621-0.309
					c0.64,0,1.211,0.11,1.715,0.331c0.504,0.221,0.936,0.526,1.296,0.915l-1.026,1.004c-0.257-0.272-0.544-0.48-0.861-0.623
					c-0.316-0.143-0.694-0.215-1.136-0.215c-0.36,0-0.702,0.065-1.026,0.193c-0.323,0.129-0.607,0.311-0.849,0.546
					c-0.243,0.235-0.436,0.52-0.579,0.855c-0.143,0.335-0.215,0.708-0.215,1.119c0,0.412,0.072,0.785,0.215,1.12
					c0.143,0.335,0.338,0.62,0.585,0.855c0.246,0.235,0.531,0.418,0.854,0.546c0.324,0.129,0.669,0.193,1.037,0.193
					c0.419,0,0.774-0.061,1.064-0.182c0.29-0.121,0.539-0.278,0.745-0.469c0.147-0.132,0.274-0.3,0.38-0.502
					c0.107-0.202,0.189-0.428,0.248-0.678h-2.482V436.334z"/>
			</g>
			<g>
				<path style="fill:#FFFFFF;" d="M297.3,431.299c-0.006-1.224-0.959-2.121-2.189-2.14c-0.924-0.014-0.832,0.12-0.834-0.867
					c-0.003-1.097-0.007-2.194,0.003-3.292c0.003-0.379-0.112-0.691-0.362-0.976c-2.342-2.668-4.678-5.342-7.019-8.011
					c-0.12-0.137-0.275-0.244-0.414-0.366c-6.214,0-12.427,0-18.641,0c-0.794,0.293-1.14,0.868-1.138,1.709
					c0.01,3.748,0.004,7.496,0.004,11.243c0,0.556-0.003,0.589-0.55,0.551c-1.497-0.102-2.516,0.986-2.497,2.492
					c0.044,3.476,0.013,6.953,0.014,10.429c0.001,1.58,0.867,2.443,2.45,2.449c0.582,0.002,0.582,0.002,0.582,0.6
					c0,2.219-0.001,4.438,0.001,6.657c0.001,1.192,0.58,1.771,1.768,1.771c8.013,0.001,16.027,0.001,24.04,0
					c1.168,0,1.755-0.583,1.757-1.745c0.002-2.256,0-4.512,0.001-6.768c0-0.512,0.002-0.511,0.52-0.515
					c0.271-0.002,0.541,0.008,0.809-0.058c0.996-0.246,1.69-1.044,1.694-2.069C297.315,438.696,297.318,434.997,297.3,431.299z
					 M268.85,417.162c5.337,0,10.674,0,16.01,0c0.548,0,0.554,0.007,0.554,0.561c0.001,2.243-0.001,4.486,0.001,6.73
					c0.001,0.811,0.249,1.059,1.06,1.059c1.91,0.001,3.821,0,5.731,0.001c0.458,0,0.479,0.021,0.481,0.483
					c0.003,0.887,0.002,1.775,0,2.662c-0.001,0.477-0.024,0.498-0.504,0.499c-3.895,0.001-7.79,0-11.684,0
					c-3.882,0-7.765,0-11.647,0c-0.55,0-0.552-0.001-0.552-0.561c-0.001-3.624-0.001-7.247,0-10.871
					C268.299,417.166,268.303,417.162,268.85,417.162z M292.135,451.579c-3.883,0.001-7.766,0-11.65,0c-3.871,0-7.742,0-11.613,0
					c-0.572,0-0.574-0.002-0.574-0.579c-0.001-1.997-0.001-3.994,0.001-5.991c0-0.464,0.023-0.486,0.478-0.487
					c7.803-0.001,15.607-0.001,23.41,0c0.478,0,0.499,0.02,0.499,0.503c0.001,1.997,0.001,3.994,0,5.991
					C292.687,451.574,292.682,451.579,292.135,451.579z"/>
			</g>
			<g>
				<path style="fill:#FFFFFF;" d="M272.966,434.183v1.831h3.165v1.412h-3.165v1.831h3.518v1.412h-5.007v-7.897h5.007v1.412H272.966
					z"/>
				<path style="fill:#FFFFFF;" d="M277.852,440.669v-7.897h2.779c0.375,0,0.726,0.061,1.053,0.182
					c0.327,0.121,0.612,0.292,0.855,0.513c0.243,0.221,0.434,0.483,0.574,0.789c0.14,0.305,0.209,0.642,0.209,1.009
					c0,0.375-0.07,0.715-0.209,1.02c-0.14,0.305-0.331,0.568-0.574,0.789c-0.243,0.221-0.528,0.392-0.855,0.513
					c-0.327,0.121-0.678,0.182-1.053,0.182h-1.29v2.901H277.852z M280.653,436.356c0.389,0,0.684-0.111,0.882-0.331
					c0.199-0.22,0.298-0.474,0.298-0.761c0-0.14-0.024-0.276-0.072-0.408c-0.048-0.132-0.121-0.248-0.221-0.347
					c-0.099-0.099-0.222-0.178-0.37-0.237c-0.147-0.059-0.32-0.089-0.518-0.089h-1.312v2.173H280.653z"/>
				<path style="fill:#FFFFFF;" d="M286.797,440.845c-0.338,0-0.662-0.048-0.971-0.143c-0.309-0.095-0.592-0.239-0.849-0.43
					c-0.257-0.191-0.482-0.425-0.673-0.7c-0.191-0.276-0.342-0.597-0.452-0.965l1.401-0.551c0.103,0.397,0.283,0.726,0.541,0.987
					c0.257,0.261,0.595,0.392,1.015,0.392c0.154,0,0.303-0.02,0.447-0.061c0.143-0.04,0.272-0.099,0.386-0.176
					c0.114-0.077,0.204-0.175,0.27-0.292c0.066-0.118,0.1-0.254,0.1-0.408c0-0.147-0.026-0.279-0.077-0.397
					c-0.051-0.117-0.138-0.227-0.259-0.331c-0.121-0.103-0.279-0.202-0.474-0.298c-0.195-0.095-0.436-0.195-0.723-0.298
					l-0.485-0.176c-0.213-0.073-0.428-0.173-0.645-0.298c-0.217-0.125-0.414-0.276-0.59-0.452c-0.176-0.176-0.322-0.384-0.436-0.623
					c-0.114-0.239-0.171-0.509-0.171-0.81c0-0.309,0.061-0.597,0.182-0.866c0.121-0.268,0.294-0.503,0.518-0.706
					c0.224-0.202,0.493-0.36,0.805-0.474c0.312-0.114,0.66-0.171,1.042-0.171c0.397,0,0.741,0.053,1.031,0.16
					c0.29,0.107,0.537,0.243,0.739,0.408c0.202,0.165,0.365,0.348,0.491,0.546c0.125,0.199,0.217,0.386,0.276,0.563l-1.312,0.551
					c-0.074-0.221-0.208-0.419-0.403-0.596c-0.195-0.176-0.462-0.265-0.799-0.265c-0.324,0-0.592,0.075-0.805,0.226
					c-0.213,0.151-0.32,0.348-0.32,0.59c0,0.235,0.103,0.436,0.309,0.601c0.206,0.165,0.533,0.325,0.982,0.48l0.496,0.165
					c0.316,0.111,0.605,0.237,0.866,0.381c0.261,0.143,0.485,0.314,0.673,0.513c0.187,0.199,0.331,0.425,0.43,0.678
					c0.099,0.254,0.149,0.546,0.149,0.877c0,0.412-0.083,0.767-0.248,1.064c-0.165,0.298-0.377,0.542-0.634,0.734
					c-0.258,0.191-0.548,0.335-0.872,0.43C287.422,440.797,287.105,440.845,286.797,440.845z"/>
			</g>
			<g>
				<path style="fill:#FFFFFF;" d="M321.394,439.168l4.004-4.985h-3.827v-1.412h5.559v1.5l-3.96,4.985h4.004v1.412h-5.779V439.168z"
					/>
				<path style="fill:#FFFFFF;" d="M328.409,432.771h1.489v7.897h-1.489V432.771z"/>
				<path style="fill:#FFFFFF;" d="M331.486,440.669v-7.897h2.779c0.375,0,0.726,0.061,1.053,0.182
					c0.327,0.121,0.612,0.292,0.855,0.513s0.434,0.483,0.574,0.789c0.14,0.305,0.209,0.642,0.209,1.009
					c0,0.375-0.07,0.715-0.209,1.02c-0.14,0.305-0.331,0.568-0.574,0.789c-0.243,0.221-0.528,0.392-0.855,0.513
					c-0.327,0.121-0.678,0.182-1.053,0.182h-1.29v2.901H331.486z M334.288,436.356c0.389,0,0.684-0.111,0.882-0.331
					c0.199-0.22,0.298-0.474,0.298-0.761c0-0.14-0.024-0.276-0.072-0.408c-0.048-0.132-0.121-0.248-0.221-0.347
					c-0.099-0.099-0.222-0.178-0.37-0.237c-0.147-0.059-0.32-0.089-0.518-0.089h-1.312v2.173H334.288z"/>
			</g>
		</g>
		<g style="opacity:0.61;">
			<path style="fill:#FFFFFF;" d="M300.133,433.27h9.067v2.242h-9.067V433.27z M300.133,437.136h9.067v2.243h-9.067V437.136z"/>
		</g>
	</g>
	<g style="opacity:0.61;">
		<path style="fill:#FFFFFF;" d="M156.756,478.878h1.607c1.263,0,2.114,0.812,2.114,1.974c0,1.161-0.851,1.973-2.114,1.973h-1.607
			V478.878z M158.34,482.464c1.049,0,1.725-0.665,1.725-1.612c0-0.947-0.677-1.613-1.725-1.613h-1.167v3.225H158.34z"/>
		<path style="fill:#FFFFFF;" d="M165.139,480.851c0-1.15,0.879-2.007,2.075-2.007c1.184,0,2.069,0.851,2.069,2.007
			c0,1.156-0.885,2.007-2.069,2.007C166.019,482.858,165.139,482.002,165.139,480.851z M168.866,480.851
			c0-0.942-0.705-1.635-1.652-1.635c-0.953,0-1.663,0.693-1.663,1.635c0,0.941,0.71,1.635,1.663,1.635
			C168.162,482.486,168.866,481.793,168.866,480.851z"/>
		<path style="fill:#FFFFFF;" d="M179.596,478.878l-1.331,3.947h-0.44l-1.156-3.366l-1.161,3.366h-0.434l-1.331-3.947h0.429
			l1.139,3.394l1.178-3.394h0.389l1.161,3.411l1.156-3.411H179.596z"/>
		<path style="fill:#FFFFFF;" d="M187.731,478.878v3.947h-0.344l-2.537-3.202v3.202h-0.417v-3.947h0.344l2.543,3.203v-3.203H187.731
			z"/>
		<path style="fill:#FFFFFF;" d="M193.093,478.878h0.417v3.586h2.21v0.361h-2.627V478.878z"/>
		<path style="fill:#FFFFFF;" d="M200.061,480.851c0-1.15,0.879-2.007,2.075-2.007c1.184,0,2.069,0.851,2.069,2.007
			c0,1.156-0.885,2.007-2.069,2.007C200.941,482.858,200.061,482.002,200.061,480.851z M203.788,480.851
			c0-0.942-0.705-1.635-1.652-1.635c-0.953,0-1.663,0.693-1.663,1.635c0,0.941,0.71,1.635,1.663,1.635
			C203.083,482.486,203.788,481.793,203.788,480.851z"/>
		<path style="fill:#FFFFFF;" d="M211.636,481.77h-2.199l-0.474,1.054h-0.434l1.804-3.947h0.412l1.804,3.947h-0.44L211.636,481.77z
			 M211.484,481.432l-0.947-2.12l-0.947,2.12H211.484z"/>
		<path style="fill:#FFFFFF;" d="M217.28,478.878h1.607c1.263,0,2.114,0.812,2.114,1.974c0,1.161-0.851,1.973-2.114,1.973h-1.607
			V478.878z M218.864,482.464c1.049,0,1.725-0.665,1.725-1.612c0-0.947-0.677-1.613-1.725-1.613h-1.167v3.225H218.864z"/>
		<path style="fill:#FFFFFF;" d="M234.041,481.77h-2.199l-0.474,1.054h-0.434l1.804-3.947h0.412l1.804,3.947h-0.44L234.041,481.77z
			 M233.889,481.432l-0.947-2.12l-0.947,2.12H233.889z"/>
		<path style="fill:#FFFFFF;" d="M239.685,478.878h0.417v3.586h2.21v0.361h-2.627V478.878z"/>
		<path style="fill:#FFFFFF;" d="M247.082,478.878h0.417v3.586h2.21v0.361h-2.627V478.878z"/>
		<path style="fill:#FFFFFF;" d="M260.449,479.239v1.551h2.041v0.361h-2.041v1.675h-0.417v-3.947h2.706v0.361H260.449z"/>
		<path style="fill:#FFFFFF;" d="M267.678,478.878h0.417v3.947h-0.417V478.878z"/>
		<path style="fill:#FFFFFF;" d="M273.456,478.878h0.417v3.586h2.21v0.361h-2.627V478.878z"/>
		<path style="fill:#FFFFFF;" d="M283.644,482.464v0.361h-2.791v-3.947h2.706v0.361h-2.289v1.404h2.041v0.355h-2.041v1.466H283.644z
			"/>
		<path style="fill:#FFFFFF;" d="M294.672,479.239v1.551h2.041v0.361h-2.041v1.675h-0.417v-3.947h2.706v0.361H294.672z"/>
		<path style="fill:#FFFFFF;" d="M301.5,480.851c0-1.15,0.879-2.007,2.075-2.007c1.184,0,2.069,0.851,2.069,2.007
			c0,1.156-0.885,2.007-2.069,2.007C302.379,482.858,301.5,482.002,301.5,480.851z M305.226,480.851
			c0-0.942-0.705-1.635-1.652-1.635c-0.953,0-1.663,0.693-1.663,1.635c0,0.941,0.71,1.635,1.663,1.635
			C304.522,482.486,305.226,481.793,305.226,480.851z"/>
		<path style="fill:#FFFFFF;" d="M313.351,482.825l-0.902-1.269c-0.102,0.011-0.203,0.017-0.316,0.017h-1.06v1.252h-0.417v-3.947
			h1.477c1.004,0,1.613,0.507,1.613,1.353c0,0.62-0.327,1.054-0.902,1.24l0.964,1.353H313.351z M313.328,480.231
			c0-0.632-0.417-0.992-1.207-0.992h-1.048v1.979h1.048C312.911,481.218,313.328,480.851,313.328,480.231z"/>
		<path style="fill:#FFFFFF;" d="M322.907,478.878v3.947h-0.4v-3.158l-1.551,2.656h-0.197l-1.551-2.639v3.14h-0.4v-3.947h0.344
			l1.714,2.926l1.697-2.926H322.907z"/>
		<path style="fill:#FFFFFF;" d="M330.744,481.77h-2.199l-0.473,1.054h-0.434l1.804-3.947h0.411l1.804,3.947h-0.44L330.744,481.77z
			 M330.592,481.432l-0.947-2.12l-0.947,2.12H330.592z"/>
		<path style="fill:#FFFFFF;" d="M336.957,479.239h-1.387v-0.361h3.192v0.361h-1.387v3.586h-0.417V479.239z"/>
		<path style="fill:#FFFFFF;" d="M343.063,482.346l0.164-0.321c0.282,0.276,0.784,0.479,1.302,0.479c0.739,0,1.06-0.31,1.06-0.699
			c0-1.083-2.43-0.417-2.43-1.877c0-0.581,0.451-1.083,1.455-1.083c0.446,0,0.908,0.13,1.224,0.35l-0.141,0.333
			c-0.338-0.22-0.733-0.327-1.083-0.327c-0.722,0-1.043,0.321-1.043,0.716c0,1.083,2.43,0.429,2.43,1.866
			c0,0.581-0.462,1.077-1.472,1.077C343.937,482.858,343.356,482.65,343.063,482.346z"/>
	</g>
</g>
<g>
</g>
<g>
	<g>
		<defs>
			<filter id="Adobe_OpacityMaskFilter" filterUnits="userSpaceOnUse" x="68.829" y="7.35" width="76.416" height="197.476">
				<feColorMatrix  type="matrix" values="1 0 0 0 0  0 1 0 0 0  0 0 1 0 0  0 0 0 1 0"/>
			</filter>
		</defs>
		<mask maskUnits="userSpaceOnUse" x="68.829" y="7.35" width="76.416" height="197.476" id="SVGID_1_">
			<g style="filter:url(#Adobe_OpacityMaskFilter);">
			</g>
		</mask>
		<g style="mask:url(#SVGID_1_);">
			<g>
				<defs>
					<path id="SVGID_1169_" d="M141.361,9.924c0.599-0.245,1.265-0.473,1.991-0.636c0.629-0.147,1.255-0.275,1.893-0.401h-0.009
						c0,0,0-0.019-0.009-0.056c-0.009-0.054-0.047-0.217-0.075-0.436c-0.007-0.037-0.007-0.072-0.007-0.1
						c-0.009-0.082-0.019-0.156-0.019-0.228c0-0.109,0.009-0.219,0.026-0.326c0-0.009,0-0.009,0-0.019
						c0.019-0.119,0.047-0.228,0.084-0.338c0,0,0-0.009,0.009-0.035C143.962,8.149,142.66,9.023,141.361,9.924 M137.676,14.253
						c-0.028,0.037-0.056,0.074-0.075,0.109c0.009-0.009,0.019-0.009,0.019-0.009l0.019-0.009c0,0,0.009,0,0.009-0.007h0.019
						l0.016-0.009c0.009,0,0.009,0,0.019,0c0.009-0.009,0.009-0.009,0.019-0.009c0,0,0.009-0.009,0.019-0.009h0.009l0.019-0.009
						c0,0,0.007,0,0.016-0.009h0.009c0.009,0,0.009-0.009,0.019-0.009s0.009,0,0.019,0c0,0,0.009-0.009,0.019-0.009
						c0,0,0.009,0,0.019,0c0-0.009,0.007-0.009,0.007-0.009c0.009,0,0.009-0.009,0.019-0.009h0.009c0.009,0,0.009-0.007,0.019-0.007
						c0.009,0,0.009,0,0.009,0c0.009,0,0.019-0.009,0.019-0.009c0.009,0,0.019,0,0.019,0c0.007,0,0.007-0.009,0.016-0.009
						c0.009,0,0.009,0,0.019,0c0-0.009,0.009-0.009,0.009-0.009c0.009,0,0.009,0,0.019,0l0.009-0.009c0.009,0,0.009,0,0.019,0
						c0,0,0.009,0,0.009-0.009c0.007,0,0.016,0,0.016,0c0.009,0,0.019,0,0.019-0.009c0.009,0,0.009,0,0.019,0h0.009
						c0.009,0,0.009-0.009,0.019-0.009c0,0,0,0,0.009,0h0.007c0.009-0.009,0.009-0.009,0.019-0.009c0.009,0,0.009,0,0.019,0
						c0.009-0.009,0.019-0.009,0.019-0.009c0.009,0,0.009,0,0.019,0c0,0,0.009,0,0.009-0.009h0.009h0.007c0.009,0,0.009,0,0.009,0
						c0.009-0.007,0.019-0.007,0.028-0.007c0.009,0,0.019,0,0.028,0l0.026-0.009c0.009,0,0.009,0,0.028-0.009
						c0.282-0.047,0.482-0.037,0.592,0.035c0.1,0.074,0.119,0.2,0.047,0.382c-0.009,0.019-0.028,0.037-0.037,0.056
						c0.554-0.482,1.111-0.964,1.684-1.446C139.805,13.373,138.713,13.718,137.676,14.253 M132.608,16.466
						c-1.456,1.155-2.676,2.147-3.559,2.874c-0.245,0.21-0.498,0.41-0.745,0.619c-0.482,0.401-0.773,0.645-0.773,0.645l0.019,0.019
						C73.393,66.964,70.373,128.044,70.373,128.044c-4.248,34.761,1.293,57.012,4.385,66.092v0.009
						c0.892,2.629,1.584,4.148,1.765,4.539c0.035,0.072,0.054,0.128,0.054,0.128c1.637,4.458,3.64,5.694,3.64,5.694
						c0,0.009-0.009,0.119,0,0.319c0.89-0.2,0.799-1.148,0.799-1.148c0.147-0.363,0.028-1.446,0.028-1.446
						c-0.864-4.739,1.365-6.721,1.365-6.721c1.756,1.591,11.181,5.347,11.181,5.347l-0.529-0.391l-0.072-0.054l-0.091-0.072
						c0,0-6.805-3.312-8.743-5.65c0,0-0.019-0.019-0.037-0.037c-0.007-0.009-0.026-0.016-0.035-0.035
						c-0.028-0.019-0.056-0.047-0.082-0.082c-0.028-0.019-0.047-0.056-0.075-0.084c-0.026-0.035-0.063-0.072-0.1-0.116
						c-0.026-0.047-0.054-0.091-0.091-0.137c-0.035-0.054-0.072-0.109-0.109-0.163c-0.026-0.065-0.063-0.128-0.098-0.191
						c-0.037-0.065-0.075-0.147-0.1-0.219c-0.037-0.082-0.075-0.154-0.109-0.245c-0.028-0.084-0.065-0.193-0.091-0.293
						c-0.028-0.091-0.056-0.172-0.084-0.272c-0.044-0.21-0.091-0.426-0.116-0.673c0-0.009-0.009-0.026-0.009-0.035s0-0.019,0-0.028
						c-0.028-0.263-0.047-0.538-0.047-0.845c0-1.574-0.727-21.261,5.014-55.277c2.636-15.611,7.194-33.723,12.18-48.598
						c2.974-8.878,6.104-16.603,9.078-21.943h-1.199c-7.916,14.32-16.941,45.633-21.088,70.559
						c-5.676,34.023-4.902,53.712-4.902,55.284c0.009,2.566,1.099,3.286,1.099,3.286s-3.638-0.566-4.201-8.251
						c0,0-4.532-29.221,5.203-73.007c0,0,4.958-26.056,19.542-49.499c0.154-0.338,0.307-0.682,0.473-1.02h-0.009
						c0.163-0.354,0.345-0.727,0.526-1.099c-0.135,0.035-0.245,0.082-0.363,0.119c-0.035,0.107-0.054,0.217-0.091,0.326
						c-0.154,0.456-0.382,0.939-0.692,1.43c-0.3,0.489-0.636,0.936-0.999,1.309c-0.366,0.382-0.738,0.701-1.12,0.946
						c-0.373,0.238-0.745,0.41-1.092,0.491c-0.345,0.072-0.673,0.065-0.955-0.044s-0.491-0.31-0.617-0.573
						c-0.137-0.275-0.191-0.61-0.184-1.001c0.019-0.382,0.1-0.81,0.265-1.265c0.154-0.463,0.391-0.946,0.692-1.437
						c0.3-0.491,0.645-0.929,0.999-1.311c0.366-0.382,0.738-0.701,1.111-0.936c0.072-0.047,0.135-0.082,0.21-0.119
						c0.082-0.219,0.21-0.429,0.408-0.582c0,0,2.012-2.119,3.903-2.511l1.174-0.247c1.102-2.164,2.294-4.43,3.603-6.749
						c0,0-0.009,0-0.019,0.009c0.219-0.391,0.456-0.792,0.682-1.174c-0.2,0.063-0.401,0.137-0.592,0.219
						c-0.009,0.019-0.019,0.044-0.026,0.063c-0.175,0.491-0.429,0.973-0.71,1.421c-0.291,0.454-0.619,0.864-0.983,1.237
						c-0.354,0.363-0.727,0.673-1.118,0.918c-0.382,0.247-0.773,0.419-1.139,0.501c-0.373,0.072-0.692,0.056-0.946-0.054
						c-0.254-0.109-0.445-0.3-0.564-0.564c-0.128-0.265-0.182-0.601-0.156-0.992c0.019-0.391,0.119-0.838,0.3-1.33
						c0.182-0.491,0.429-0.973,0.72-1.428c0.291-0.445,0.62-0.873,0.983-1.237c0.354-0.363,0.727-0.682,1.118-0.92
						c0.109-0.072,0.219-0.116,0.328-0.182c0.091-0.2,0.254-0.445,0.582-0.773c1.628-1.628,3.757-2.483,5.95-3.065
						c1.099-1.719,2.264-3.458,3.503-5.205l-0.028,0.009c0.291-0.436,0.601-0.855,0.908-1.29c-0.317,0.126-0.626,0.254-0.918,0.401
						c-0.191,0.345-0.401,0.699-0.638,1.036c-0.307,0.426-0.645,0.836-1.008,1.199c-0.356,0.366-0.729,0.682-1.102,0.939
						c-0.363,0.263-0.736,0.454-1.074,0.564c-0.345,0.109-0.627,0.128-0.836,0.063c-0.219-0.063-0.373-0.217-0.454-0.436
						c-0.084-0.219-0.091-0.51-0.028-0.855c0.063-0.347,0.2-0.757,0.419-1.211c0.217-0.463,0.489-0.918,0.789-1.346
						c0.31-0.428,0.657-0.836,1.011-1.202c0.363-0.363,0.736-0.682,1.111-0.946c0.163-0.119,0.335-0.228,0.508-0.31
						c0.128-0.245,0.366-0.536,0.838-1.018c2.073-2.075,3.729-2.438,6.23-3.121c1.12-1.374,2.285-2.739,3.512-4.104
						c-0.009,0-0.026,0.009-0.035,0.009c0.426-0.473,0.873-0.946,1.309-1.418c-0.335,0.119-0.664,0.245-1.001,0.391
						c-0.144,0.282-0.317,0.582-0.564,0.918c-0.009,0.009-0.019,0.028-0.026,0.037c-0.009,0.009-0.019,0.028-0.028,0.037
						c-0.009,0.016-0.019,0.026-0.028,0.044c-0.009,0.009-0.019,0.019-0.028,0.037l-0.009,0.009
						c-0.007,0.007-0.007,0.007-0.007,0.016c-0.009,0-0.009,0.009-0.009,0.009c-0.009,0.009-0.009,0.009-0.019,0.019
						c0,0.009-0.009,0.019-0.019,0.019c0,0.009-0.009,0.019-0.019,0.028l-0.019,0.026c-0.007,0.009-0.016,0.019-0.016,0.028
						c-0.009,0.009-0.009,0.009-0.009,0.009c-0.009,0.009-0.009,0.019-0.019,0.019c0,0.009-0.009,0.009-0.009,0.019l-0.009,0.009
						c-0.009,0.007-0.019,0.016-0.019,0.026c-0.009,0.009-0.019,0.019-0.019,0.028c-0.007,0.009-0.016,0.009-0.016,0.019
						c-0.009,0.009-0.019,0.019-0.028,0.028l-0.009,0.016c-0.009,0-0.009,0.009-0.009,0.009c-0.009,0.009-0.019,0.019-0.019,0.019
						l-0.009,0.019c-0.009,0.009-0.016,0.019-0.016,0.019c-0.009,0.009-0.019,0.016-0.028,0.026c0,0.009-0.009,0.009-0.009,0.019
						c-0.009,0.009-0.019,0.019-0.019,0.028c-0.009,0-0.019,0.009-0.019,0.019c0,0-0.009,0.009-0.009,0.019
						c-0.009,0-0.016,0.007-0.016,0.007c-0.009,0.009-0.009,0.009-0.019,0.019l-0.009,0.019c-0.009,0.009-0.019,0.019-0.019,0.028
						l-0.019,0.019c-0.009,0.007-0.019,0.007-0.026,0.016c0,0.009-0.009,0.009-0.009,0.019c-0.009,0.009-0.009,0.009-0.019,0.019
						c0,0.009-0.009,0.009-0.009,0.019c-0.009,0-0.019,0.009-0.019,0.019l-0.054,0.054c0,0.009-0.009,0.019-0.019,0.028
						l-0.009,0.009c-0.009,0.009-0.019,0.019-0.019,0.019c-0.009,0.007-0.009,0.016-0.019,0.016
						c-0.009,0.009-0.009,0.009-0.009,0.019l-0.026,0.019c0,0.009-0.009,0.019-0.019,0.019c0,0.009-0.009,0.019-0.019,0.028
						c0,0.007-0.009,0.007-0.019,0.016c0,0-0.009,0.009-0.009,0.019c-0.009,0-0.009,0.009-0.016,0.009
						c0,0.009-0.009,0.009-0.009,0.019c-0.009,0.009-0.019,0.009-0.019,0.019c-0.009,0.009-0.019,0.009-0.019,0.016
						c-0.009,0.009-0.019,0.019-0.019,0.019c-0.009,0.009-0.019,0.019-0.028,0.019c0,0.009-0.007,0.019-0.016,0.028
						c0,0.009-0.009,0.009-0.009,0.019c-0.009,0-0.009,0.009-0.019,0.009c0,0.007-0.009,0.007-0.019,0.016
						c0,0.009,0,0.009-0.009,0.019l-0.035,0.037c-0.009,0.009-0.019,0.019-0.028,0.019l-0.019,0.026l-0.009,0.009l-0.019,0.019
						c-0.009,0.009-0.009,0.009-0.016,0.019l-0.009,0.009c-0.009,0.009-0.019,0.019-0.028,0.026c0,0-0.009,0.009-0.019,0.019
						c0,0-0.009,0.009-0.019,0.009c-0.009,0.009-0.009,0.019-0.019,0.028c-0.007,0-0.007,0.009-0.016,0.009l-0.009,0.019
						c-0.009,0.009-0.009,0.016-0.019,0.016l-0.019,0.019c-0.009,0-0.009,0.009-0.019,0.019l-0.016,0.019
						c-0.009,0.009-0.019,0.009-0.019,0.019l-0.028,0.019c0,0.007-0.009,0.007-0.019,0.016c0,0,0,0.009-0.009,0.009
						c-0.009,0.009-0.009,0.009-0.019,0.019l-0.007,0.009c-0.009,0.009-0.019,0.019-0.028,0.028
						c-0.009,0.009-0.019,0.009-0.028,0.016c0,0.009-0.009,0.019-0.019,0.028c-0.009,0-0.019,0.009-0.026,0.019
						c0,0.009-0.009,0.009-0.009,0.009c0,0.009-0.009,0.009-0.009,0.009c-0.009,0.009-0.009,0.009-0.019,0.009
						c0,0.009,0,0.009-0.009,0.019c-0.009,0.007-0.019,0.016-0.028,0.016c-0.009,0.009-0.019,0.019-0.026,0.028l-0.028,0.028
						c-0.009,0.009-0.019,0.019-0.028,0.026c0,0,0,0-0.009,0.009c0,0,0,0-0.009,0c0,0.009,0,0.009-0.009,0.009
						c0,0,0,0.009-0.007,0.009l-0.037,0.028c-0.009,0.019-0.019,0.028-0.028,0.037l-0.035,0.026
						c-0.019,0.009-0.028,0.028-0.047,0.037c0,0,0,0,0,0.009h-0.009c0,0,0,0-0.009,0.009c0,0,0,0,0,0.009
						c-0.009,0-0.026,0.009-0.035,0.016c-0.009,0.009-0.019,0.019-0.028,0.028c-0.009,0.009-0.019,0.019-0.028,0.019
						c-0.009,0.009-0.019,0.019-0.028,0.028c-0.007,0-0.007,0.009-0.016,0.009l-0.009,0.016l-0.009,0.009l-0.019,0.009
						c-0.009,0-0.009,0.009-0.019,0.019c-0.009,0.009-0.019,0.009-0.028,0.019c-0.007,0.009-0.016,0.009-0.026,0.019
						c0,0.009-0.009,0.009-0.019,0.016c-0.009,0.009-0.009,0.009-0.019,0.009c0,0.009-0.009,0.009-0.009,0.019
						c-0.009,0-0.009,0-0.019,0.009c0,0-0.009,0.009-0.016,0.009c0,0.009-0.009,0.009-0.019,0.019
						c-0.009,0.009-0.009,0.009-0.019,0.019c-0.009,0.009-0.019,0.009-0.028,0.016c0,0-0.009,0.009-0.019,0.019
						c-0.007,0-0.007,0.009-0.016,0.009l-0.009,0.009c-0.009,0-0.019,0.009-0.019,0.009c-0.009,0.009-0.009,0.009-0.019,0.019
						l-0.019,0.019l-0.019,0.007l-0.016,0.019c-0.009,0-0.019,0.009-0.028,0.019c0,0-0.009,0-0.009,0.009
						c-0.009,0-0.019,0.009-0.019,0.009c-0.009,0.009-0.009,0.009-0.019,0.009c0,0.009-0.007,0.009-0.016,0.019
						c-0.009,0-0.009,0.009-0.019,0.009l-0.019,0.016c-0.009,0.009-0.019,0.009-0.019,0.019l-0.028,0.009
						c0,0.009-0.007,0.009-0.007,0.009c-0.009,0.009-0.019,0.009-0.019,0.019c-0.009,0-0.009,0-0.019,0.009
						c0,0-0.009,0.009-0.019,0.009c0,0.009-0.009,0.009-0.019,0.016c0,0-0.009,0.009-0.019,0.009
						c-0.007,0.009-0.016,0.009-0.016,0.019c-0.009,0-0.009,0.009-0.019,0.009c-0.009,0.009-0.019,0.009-0.019,0.009
						c-0.009,0.009-0.009,0.009-0.019,0.019c0,0-0.009,0-0.019,0.009c0,0-0.009,0.009-0.016,0.009c0,0.009-0.009,0.009-0.009,0.016
						c-0.009,0-0.019,0-0.028,0.009c-0.009,0.009-0.009,0.009-0.019,0.009c-0.009,0.009-0.009,0.009-0.019,0.019
						c-0.009,0-0.009,0.009-0.016,0.009l-0.009,0.009c-0.009,0-0.019,0.009-0.019,0.009l-0.019,0.009
						c-0.009,0.009-0.009,0.009-0.019,0.016c-0.009,0-0.019,0.009-0.019,0.009c-0.009,0.009-0.016,0.009-0.016,0.019
						c-0.009,0-0.019,0-0.028,0.009l-0.009,0.009c-0.009,0-0.009,0.009-0.019,0.009l-0.019,0.009l-0.009,0.009
						c-0.007,0.009-0.016,0.009-0.026,0.009c0,0.009-0.009,0.009-0.019,0.016c-0.009,0-0.009,0.009-0.019,0.009
						c-0.009,0.009-0.009,0.009-0.019,0.019c-0.009,0-0.009,0-0.019,0c0,0.009-0.007,0.009-0.007,0.009
						c-0.009,0.009-0.009,0.009-0.019,0.009c-0.009,0.009-0.009,0.009-0.019,0.009c-0.009,0.009-0.009,0.009-0.019,0.019
						c-0.009,0-0.009,0-0.019,0.009c-0.009,0-0.019,0.007-0.019,0.007c-0.007,0-0.016,0.009-0.016,0.009
						c-0.009,0.009-0.009,0.009-0.019,0.009c-0.009,0-0.009,0.009-0.019,0.009l-0.009,0.009c-0.009,0-0.009,0.009-0.019,0.009
						c-0.009,0-0.009,0.009-0.019,0.009l-0.016,0.009c-0.009,0.009-0.019,0.009-0.019,0.019l-0.028,0.009c0,0-0.009,0-0.009,0.007
						c-0.009,0-0.009,0-0.019,0c0,0.009-0.007,0.009-0.007,0.009c-0.009,0-0.009,0.009-0.019,0.009
						c-0.009,0-0.009,0.009-0.019,0.009c-0.009,0.009-0.019,0.009-0.028,0.019l-0.019,0.009c-0.009,0-0.016,0.009-0.026,0.009
						c0,0,0,0-0.009,0l-0.019,0.019h-0.009l-0.037,0.016c-0.007,0-0.016,0.009-0.026,0.019l-0.037,0.009
						c-0.009,0.009-0.028,0.009-0.037,0.019c-0.007,0-0.016,0.009-0.026,0.009c-0.019,0.009-0.028,0.019-0.037,0.019
						c-0.009,0.009-0.019,0.009-0.028,0.009c-0.009,0.009-0.016,0.009-0.035,0.016h-0.009l-0.009,0.009c-0.009,0-0.009,0-0.019,0
						c0,0.009,0,0.009-0.009,0.009c-0.009,0-0.009,0-0.019,0.009c-0.009,0-0.016,0-0.016,0.009c-0.009,0-0.009,0-0.019,0
						c-0.009,0.009-0.019,0.009-0.028,0.009c0,0,0,0-0.009,0l-0.009,0.009c-0.009,0-0.009,0.009-0.019,0.009h-0.007
						c-0.009,0-0.009,0-0.019,0.009h-0.019c-0.009,0.009-0.009,0.009-0.019,0.009l-0.019,0.007c-0.009,0-0.009,0-0.019,0.009
						c-0.007,0-0.016,0-0.026,0c-0.009,0-0.009,0.009-0.019,0.009c-0.009,0-0.019,0.009-0.019,0.009c-0.009,0-0.009,0-0.019,0
						c0,0,0,0-0.009,0c0,0-0.007,0-0.007,0.009h-0.009c-0.009,0-0.019,0.009-0.037,0.009c-0.009,0-0.019,0-0.028,0.009
						c-0.009,0-0.019,0-0.026,0c-0.019,0.009-0.028,0.009-0.037,0.009c-0.319,0.072-0.554,0.054-0.72-0.037
						c-0.163-0.091-0.245-0.263-0.245-0.491c-0.009-0.235,0.063-0.526,0.219-0.864c0.144-0.345,0.373-0.736,0.682-1.164
						c0.007-0.009,0.016-0.028,0.026-0.035c0.009-0.009,0.019-0.028,0.028-0.047c0.009-0.009,0.019-0.019,0.028-0.037
						c0.019-0.009,0.026-0.026,0.035-0.035v-0.009c0.009-0.009,0.009-0.009,0.019-0.019c0,0,0,0,0-0.009
						c0.009,0,0.009-0.009,0.019-0.009c0-0.009,0.009-0.019,0.019-0.028c0.009-0.007,0.009-0.016,0.019-0.026
						c0.009-0.009,0.016-0.019,0.016-0.028c0.009-0.009,0.019-0.019,0.028-0.028c0-0.009,0.009-0.009,0.009-0.016
						c0,0,0.009,0,0.009-0.009c0.009-0.009,0.009-0.009,0.009-0.019c0.009,0,0.009-0.009,0.019-0.009
						c0-0.009,0.009-0.019,0.016-0.028c0-0.009,0.009-0.019,0.019-0.019c0.009-0.009,0.009-0.016,0.019-0.026
						c0.009-0.009,0.009-0.019,0.019-0.028c0,0,0.009-0.009,0.019-0.019c0,0,0.009-0.009,0.009-0.019l0.009-0.009
						c0.007-0.007,0.007-0.007,0.016-0.016c0.009-0.009,0.009-0.009,0.019-0.019c0-0.009,0.009-0.019,0.019-0.028
						c0.009-0.009,0.009-0.009,0.019-0.019c0.009-0.009,0.009-0.019,0.019-0.026l0.007-0.009c0.009-0.009,0.009-0.019,0.019-0.019
						c0-0.009,0.009-0.009,0.009-0.019c0.009,0,0.009-0.009,0.019-0.009c0-0.009,0.009-0.019,0.019-0.028
						c0-0.009,0.009-0.016,0.019-0.016c0.009-0.009,0.009-0.019,0.016-0.028c0-0.009,0.009-0.009,0.019-0.019
						c0-0.009,0.009-0.009,0.019-0.019c0,0,0.009-0.009,0.009-0.019c0.009,0,0.009-0.009,0.019-0.016l0.009-0.009
						c0.009-0.009,0.019-0.019,0.019-0.019l0.016-0.028c0.009-0.009,0.009-0.009,0.019-0.019l0.019-0.016
						c0-0.009,0.009-0.019,0.019-0.019c0-0.009,0.009-0.009,0.009-0.019c0.009-0.009,0.019-0.009,0.019-0.019
						c0.007-0.009,0.007-0.009,0.016-0.019c0.009-0.009,0.009-0.009,0.019-0.019c0-0.007,0.009-0.007,0.019-0.016
						c0-0.009,0.009-0.009,0.019-0.019c0-0.009,0.009-0.009,0.009-0.019c0.009-0.009,0.016-0.009,0.016-0.019
						c0.009-0.009,0.009-0.009,0.019-0.019c0.009-0.007,0.009-0.007,0.019-0.016c0,0,0.009-0.009,0.019-0.019
						c0,0,0.009-0.009,0.019-0.019c0-0.009,0.009-0.009,0.019-0.019l0.016-0.019c0-0.009,0.009-0.009,0.009-0.016l0.019-0.019
						c0.009-0.009,0.019-0.009,0.019-0.019l0.019-0.009c0-0.009,0.009-0.019,0.009-0.019c0.007-0.009,0.016-0.019,0.016-0.019
						c0.009-0.009,0.019-0.016,0.019-0.026c0.009,0,0.019-0.009,0.028-0.019c0,0,0.009-0.009,0.019-0.019
						c0,0,0.009-0.009,0.019-0.019l0.007-0.009c0.009-0.009,0.009-0.009,0.019-0.019l0.019-0.016c0,0,0.009-0.009,0.019-0.019
						c0,0,0.009-0.009,0.019-0.019c0-0.009,0.009-0.009,0.019-0.019c0-0.009,0.007-0.009,0.016-0.019
						c0-0.007,0.009-0.007,0.019-0.016l0.009-0.009c0.009-0.009,0.019-0.019,0.019-0.019c0.009-0.009,0.009-0.019,0.019-0.019
						c0.009-0.009,0.009-0.009,0.019-0.019c0.007-0.009,0.007-0.009,0.016-0.019c0-0.007,0.009-0.007,0.019-0.016
						c0,0,0.009-0.009,0.019-0.019c0.009,0,0.009-0.009,0.019-0.009c0-0.009,0.009-0.019,0.019-0.019
						c0-0.009,0.007-0.019,0.016-0.019l0.019-0.016c0,0,0.009-0.009,0.009-0.019c0.009,0,0.019-0.009,0.019-0.009
						c0.009-0.009,0.009-0.009,0.019-0.019c0.009,0,0.009-0.009,0.019-0.019c0.007,0,0.007-0.009,0.016-0.019
						c0,0,0.009-0.009,0.019-0.016c0.009,0,0.009-0.009,0.019-0.009c0.009-0.009,0.009-0.019,0.019-0.019l0.009-0.009
						c0,0,0,0,0-0.009c0.009,0,0.009,0,0.009,0s0-0.009,0.007-0.009c0.009-0.009,0.028-0.028,0.047-0.044
						c0.019-0.009,0.037-0.028,0.054-0.047c0.009-0.009,0.028-0.028,0.047-0.037c0.019-0.016,0.037-0.035,0.054-0.044
						c0-0.009,0.009-0.009,0.009-0.019c0.009,0,0.009,0,0.019-0.009l0.009-0.009c0.009-0.009,0.009-0.009,0.019-0.019
						c0,0,0.009-0.007,0.019-0.007c0.009-0.009,0.019-0.019,0.019-0.019c0.007-0.009,0.016-0.019,0.016-0.019
						c0.009-0.009,0.019-0.009,0.028-0.019c0-0.009,0.009-0.009,0.009-0.019c0.009,0,0.009-0.009,0.019-0.009
						c0.009,0,0.009-0.009,0.019-0.009c0-0.007,0.007-0.007,0.007-0.016c0.009,0,0.019-0.009,0.028-0.019
						c0.009,0,0.009-0.009,0.019-0.019c0.009,0,0.019-0.009,0.019-0.009c0.009-0.009,0.019-0.019,0.028-0.019
						c0-0.009,0.007-0.009,0.007-0.016c0.009,0,0.009-0.009,0.019-0.009c0-0.009,0.009-0.009,0.009-0.009
						c0.009-0.009,0.019-0.009,0.019-0.009c0.009-0.009,0.019-0.019,0.019-0.019c0.009-0.009,0.019-0.019,0.026-0.019
						c0.009-0.009,0.009-0.019,0.019-0.019l0.019-0.016c0.009-0.009,0.019-0.009,0.019-0.009c0.009-0.009,0.009-0.009,0.019-0.019
						c0,0,0.009,0,0.009-0.009c0.009,0,0.009-0.009,0.016-0.009c0.009-0.009,0.009-0.009,0.019-0.019
						c0.009,0,0.019-0.009,0.028-0.019c0,0,0.009-0.009,0.019-0.016c0.009,0,0.019,0,0.019-0.009
						c0.009-0.009,0.009-0.009,0.016-0.009c0-0.009,0.009-0.009,0.009-0.019c0.009,0,0.009,0,0.019-0.009l0.009-0.009
						c0.009-0.009,0.019-0.009,0.028-0.019c0.009-0.009,0.019-0.009,0.019-0.009c0.009-0.009,0.016-0.016,0.026-0.016
						c0.009-0.009,0.009-0.019,0.019-0.019c0.009-0.009,0.009-0.009,0.009-0.009c0.009,0,0.019-0.009,0.019-0.009l0.019-0.009
						c0-0.009,0-0.009,0.009-0.009c0.007-0.009,0.016-0.019,0.026-0.019c0-0.009,0.009-0.009,0.019-0.016
						c0.009-0.009,0.019-0.009,0.019-0.019l0.028-0.009c0-0.009,0.009-0.009,0.009-0.009c0.007-0.009,0.007-0.009,0.016-0.009
						c0-0.009,0-0.009,0.009-0.009c0-0.009,0.009-0.009,0.009-0.009l0.028-0.019c0.009-0.009,0.009-0.009,0.019-0.016l0.026-0.009
						l0.019-0.019c0.009,0,0.009-0.009,0.019-0.009l0.009-0.009l0.009-0.009c0.009,0,0.009,0,0.019,0l0.016-0.019
						c0.009-0.009,0.019-0.016,0.028-0.016l0.019-0.019l0.028-0.009l0.009-0.009l0.009-0.009c0.007,0,0.007,0,0.016,0
						c0-0.009,0-0.009,0.009-0.009c0.009-0.009,0.009-0.009,0.019-0.019s0.019-0.009,0.028-0.019c0.009,0,0.019-0.007,0.028-0.007
						c0.007-0.009,0.016-0.019,0.016-0.019c0.091-0.119,0.165-0.256,0.21-0.438c0,0,0.109-0.783,1.893-2.038
						c0,0,1.446-1.008,3.638-1.682c0,0,0.845-0.3,2.711-0.766c0.382-0.363,0.773-0.727,1.164-1.099
						c-0.009,0.009-0.019,0.019-0.019,0.019c-0.009,0.007-0.016,0.007-0.026,0.016c-0.009,0.009-0.019,0.009-0.037,0.019
						c-0.009,0.009-0.009,0.009-0.028,0.019l-0.009,0.009c-0.007,0-0.007,0.009-0.016,0.009l-0.009,0.009
						c-0.009,0.009-0.009,0.009-0.019,0.009l-0.028,0.016c-0.009,0.009-0.019,0.009-0.028,0.019c-0.007,0-0.016,0.009-0.026,0.019
						c-0.009,0-0.019,0.009-0.019,0.019c-0.009,0-0.019,0-0.019,0c-0.009,0.009-0.009,0.009-0.019,0.019l-0.009,0.009
						c-0.007,0-0.016,0.009-0.016,0.009c-0.009,0-0.019,0.007-0.028,0.007c-0.009,0.009-0.019,0.019-0.028,0.019
						c-0.009,0.009-0.019,0.009-0.028,0.019c0,0-0.016,0.009-0.016,0.019c-0.009,0-0.019,0-0.019,0.009
						c-0.009,0-0.009,0-0.019,0.009c-0.009,0-0.009,0.009-0.019,0.009l-0.009,0.009c-0.009,0.007-0.019,0.007-0.026,0.016
						l-0.028,0.009c-0.009,0.009-0.019,0.019-0.028,0.019c-0.009,0.009-0.009,0.009-0.028,0.019l-0.009,0.009
						c-0.007,0-0.007,0.009-0.016,0.009c0,0-0.009,0-0.019,0.009l-0.009,0.007l-0.028,0.019c-0.009,0-0.019,0.009-0.026,0.009
						c-0.009,0.009-0.019,0.009-0.028,0.019c-0.009,0-0.019,0.009-0.019,0.019c-0.009,0-0.019,0-0.019,0l-0.019,0.019
						c0,0-0.009,0-0.016,0c0,0.009-0.009,0.009-0.009,0.009c-0.019,0.007-0.019,0.016-0.028,0.016
						c-0.009,0.009-0.019,0.009-0.028,0.019c-0.009,0-0.019,0.009-0.026,0.019c-0.009,0-0.019,0.009-0.028,0.009
						c0,0.009-0.009,0.009-0.009,0.009c-0.009,0-0.019,0.009-0.019,0.009l-0.009,0.009c-0.009,0-0.009,0-0.019,0.007
						c-0.009,0.009-0.026,0.009-0.035,0.019c-0.009,0-0.019,0.009-0.028,0.019c-0.009,0-0.019,0.009-0.037,0.019
						c-0.009,0.009-0.016,0.009-0.026,0.019h-0.009l-0.009,0.009h-0.009l-0.009,0.009c-0.009,0-0.028,0.007-0.037,0.016
						c-0.009,0.009-0.026,0.019-0.035,0.019c-0.019,0.009-0.028,0.019-0.047,0.028c-0.009,0-0.019,0.009-0.035,0.019
						c0,0-0.009,0.009-0.019,0.009c0,0,0,0.009-0.009,0.009c0,0-0.009,0-0.009,0.007c-0.009,0-0.009,0-0.019,0
						c-0.009,0.009-0.019,0.009-0.028,0.019c-0.007,0-0.016,0.009-0.016,0.009c-0.009,0.009-0.019,0.009-0.028,0.019
						c-0.009,0-0.019,0.009-0.028,0.009c-0.009,0.009-0.009,0.009-0.019,0.009c0,0.009-0.007,0.009-0.016,0.009
						c0,0.009-0.009,0.009-0.009,0.009c-0.009,0-0.019,0.009-0.019,0.009c-0.009,0-0.019,0.007-0.028,0.007
						c0,0.009-0.009,0.009-0.019,0.019c-0.009,0-0.016,0-0.016,0.009c-0.009,0-0.019,0.009-0.028,0.009
						c-0.009,0-0.009,0.009-0.019,0.009s-0.009,0.009-0.019,0.009c0,0-0.009,0.009-0.019,0.009c0,0-0.009,0.009-0.016,0.009
						l-0.019,0.009c-0.009,0.007-0.009,0.007-0.019,0.007c-0.009,0.009-0.019,0.009-0.028,0.009l-0.019,0.019c0,0-0.009,0-0.016,0
						c0,0.009-0.009,0.009-0.019,0.009c0,0.009-0.009,0.009-0.019,0.009c0,0.009-0.009,0.009-0.019,0.009
						c0,0.009-0.009,0.009-0.019,0.009l-0.016,0.019c-0.009,0-0.009,0-0.019,0.009c-0.009,0-0.019,0-0.028,0.007
						c0,0-0.009,0-0.009,0.009c-0.009,0-0.019,0-0.019,0c-0.009,0.009-0.009,0.009-0.019,0.009
						c-0.007,0.009-0.007,0.009-0.016,0.009c-0.009,0-0.009,0.009-0.019,0.009c-0.009,0.009-0.019,0.009-0.028,0.009
						c0,0.009-0.009,0.009-0.019,0.009c-0.009,0.009-0.009,0.009-0.016,0.019c-0.009,0-0.009,0-0.019,0
						c-0.009,0.009-0.009,0.009-0.019,0.009l-0.009,0.007c-0.009,0-0.009,0.009-0.019,0.009s-0.019,0-0.019,0.009l-0.026,0.009
						c-0.009,0-0.019,0.009-0.019,0.009c-0.009,0-0.019,0.009-0.028,0.009l-0.009,0.009c-0.009,0-0.009,0-0.019,0
						c0,0.009-0.009,0.009-0.009,0.009c-0.007,0-0.007,0.009-0.016,0.009c-0.009,0-0.019,0.009-0.028,0.009
						c-0.009,0.009-0.019,0.009-0.028,0.009c-0.009,0.007-0.019,0.007-0.028,0.016c-0.007,0-0.016,0-0.026,0.009c0,0,0,0-0.009,0
						c0,0,0,0-0.009,0.009c-0.009,0-0.009,0-0.009,0c-0.019,0.009-0.028,0.009-0.037,0.019c-0.007,0-0.026,0.009-0.035,0.009
						c-0.009,0.009-0.019,0.019-0.037,0.019c-0.009,0-0.019,0.009-0.028,0.019c-0.007,0-0.007,0-0.016,0h-0.009l-0.009,0.007
						c-0.009,0-0.009,0-0.019,0.009c0,0-0.009,0-0.019,0c-0.009,0.009-0.009,0.009-0.019,0.009
						c-0.007,0.009-0.016,0.009-0.026,0.009c0,0.009-0.009,0.009-0.019,0.009c0,0-0.009,0-0.019,0.009h-0.009
						c-0.009,0-0.009,0.009-0.019,0.009h-0.009c-0.007,0.009-0.007,0.009-0.016,0.009c-0.009,0-0.009,0.009-0.019,0.009
						c-0.009,0-0.019,0-0.019,0.009c-0.009,0-0.019,0-0.019,0c-0.009,0-0.009,0.009-0.019,0.009h-0.009
						c-0.007,0.007-0.007,0.007-0.016,0.007h-0.009l-0.019,0.009c-0.009,0-0.019,0-0.019,0.009h-0.019
						c-0.009,0-0.019,0.009-0.019,0.009c-0.007,0-0.007,0-0.016,0l-0.009,0.009c-0.009,0-0.009,0-0.019,0
						c0,0.009,0,0.009-0.009,0.009s-0.009,0-0.019,0.009c-0.009,0-0.009,0-0.019,0l-0.016,0.009c0,0-0.009,0-0.019,0
						c0,0-0.009,0-0.009,0.009c0,0-0.009,0-0.019,0c0,0,0,0-0.009,0l-0.009,0.009c-0.009,0-0.019,0-0.019,0l-0.016,0.007
						c-0.009,0-0.009,0-0.019,0l-0.019,0.009h-0.009c0,0-0.009,0-0.009,0.009c-0.009,0-0.009,0-0.019,0c0,0,0,0-0.007,0
						c-0.009,0-0.009,0-0.019,0.009c0,0-0.009,0-0.019,0s-0.009,0-0.019,0c-0.009,0.009-0.009,0.009-0.019,0.009h-0.009
						l-0.009,0.009c0,0,0,0-0.007,0c0,0,0,0-0.009,0c-0.009,0-0.019,0-0.028,0.009c-0.009,0-0.019,0-0.028,0
						s-0.019,0.009-0.019,0.009h-0.026c-0.019,0-0.028,0.009-0.037,0.009c-0.019,0-0.028,0.009-0.037,0.009
						c-0.016,0-0.026,0-0.035,0s-0.028,0-0.037,0.009c-0.009,0-0.009,0-0.019,0c-0.009,0-0.009,0-0.009,0
						c-0.007,0-0.016,0-0.035,0.007c-0.009,0-0.019,0-0.028,0c-0.009,0-0.019,0-0.028,0h-0.072c-0.009,0-0.019,0-0.028,0
						c0,0-0.007,0-0.016,0c-0.009,0-0.019-0.007-0.019-0.007h-0.028c0,0-0.009,0-0.019,0c-0.009-0.009-0.009-0.009-0.019-0.009
						h-0.026c0-0.009-0.009-0.009-0.019-0.009l-0.009-0.009c-0.009,0-0.009,0-0.019,0c0-0.009-0.009-0.009-0.019-0.009l-0.009-0.009
						c-0.007,0-0.007,0-0.016-0.009c-0.009-0.009-0.019-0.009-0.019-0.009c-0.009-0.009-0.009-0.009-0.019-0.009
						c0-0.009,0-0.009-0.009-0.019c0,0,0,0-0.009-0.007v-0.009h-0.009c0-0.009-0.009-0.019-0.009-0.028
						c-0.009-0.009-0.009-0.019-0.016-0.028c0-0.009,0-0.019,0-0.019c-0.009-0.026-0.009-0.035-0.009-0.054v-0.009
						c0,0,0-0.009,0-0.019s0-0.009,0-0.009s0-0.016,0-0.026c0,0,0.009-0.019,0.009-0.028v-0.019
						c0.007-0.009,0.007-0.019,0.007-0.028c0,0,0.009-0.009,0.009-0.016c0-0.009,0.009-0.019,0.009-0.028v-0.009
						c0.009-0.009,0.009-0.019,0.019-0.028c0-0.009,0-0.009,0.009-0.019c0-0.009,0-0.016,0.009-0.026
						c0-0.009,0.009-0.019,0.009-0.028h0.009v-0.019c0.009,0,0.009-0.009,0.019-0.019l0.007-0.026
						c0.009-0.009,0.009-0.019,0.019-0.028c0.009-0.009,0.009-0.019,0.019-0.028s0.009-0.028,0.019-0.035
						c0.009-0.009,0.019-0.019,0.019-0.028c0.009-0.009,0.019-0.028,0.026-0.037c0.009-0.009,0.009-0.019,0.019-0.026l0.009-0.009
						c0.009-0.009,0.009-0.009,0.009-0.009c0.019-0.019,0.028-0.047,0.047-0.065c0.016-0.016,0.035-0.044,0.054-0.072
						c0.019-0.019,0.037-0.037,0.054-0.063c0.019-0.019,0.047-0.047,0.065-0.074c0.009,0,0.009-0.007,0.009-0.007h0.009v-0.009
						c0.009-0.009,0.016-0.028,0.026-0.037c0.019-0.009,0.028-0.028,0.037-0.037c0.019-0.007,0.028-0.016,0.037-0.035
						c0.007-0.019,0.026-0.028,0.035-0.037l0.256-0.254c0.009-0.009,0.016-0.019,0.026-0.028l0.037-0.028l0.063-0.063
						c0.019-0.009,0.028-0.028,0.047-0.037c0.009-0.009,0.019-0.016,0.028-0.026c0.016-0.009,0.026-0.028,0.035-0.037
						c0.009-0.009,0.019-0.019,0.028-0.028h0.009c0-0.009,0.009-0.009,0.009-0.009c0.009-0.007,0.009-0.007,0.009-0.007
						c0.016-0.009,0.026-0.019,0.035-0.028l0.028-0.028c0.009-0.009,0.019-0.019,0.037-0.028c0-0.009,0.016-0.016,0.026-0.026h0.009
						c0-0.009,0-0.009,0.009-0.019s0.009-0.009,0.019-0.009c0.009-0.009,0.019-0.028,0.037-0.037
						c0.007-0.009,0.026-0.016,0.035-0.035c0.019,0,0.028-0.019,0.047-0.028c0.009-0.009,0.026-0.028,0.035-0.037
						c0.019-0.009,0.028-0.016,0.037-0.026c0.019-0.009,0.028-0.019,0.037-0.028c0.016-0.019,0.026-0.019,0.035-0.037
						c0.019-0.009,0.028-0.019,0.037-0.026c0.009,0,0.009-0.009,0.019-0.009l0.009-0.009c0.007,0,0.007-0.009,0.007-0.009
						c0.009-0.009,0.009-0.009,0.019-0.009c0.009-0.009,0.009-0.019,0.019-0.019l0.028-0.028c0.009,0,0.019-0.009,0.026-0.016
						l0.028-0.019l0.009-0.009c0.009,0,0.009-0.009,0.019-0.009c0-0.009,0.009-0.009,0.009-0.019c0.009,0,0.009,0,0.019-0.009
						c0.009-0.009,0.009-0.009,0.016-0.019c0.009,0,0.019-0.007,0.028-0.016h0.009c0.009-0.1,0.019-0.191,0.037-0.282
						c0-0.009,0-0.019,0-0.028c0,0,0.026-0.538,0.1-0.892C133.507,15.728,133.072,16.1,132.608,16.466"/>
				</defs>
				<clipPath id="SVGID_00000066509038704539958530000002609187088695998083_">
					<use xlink:href="#SVGID_1169_"  style="display:none;overflow:visible;"/>
				</clipPath>
			</g>
		</g>
	</g>
</g>
<g>
	<path style="fill:#381D54;" d="M249.992,24.764C373.943,24.649,474.816,125.715,475,250.202
		c0.184,124.343-101.01,224.96-226.321,225.034C125.793,475.308,25.018,373.885,25,250.121
		C24.982,125.754,125.692,24.88,249.992,24.764z M147.417,53.352c-2.055,0.952-3.227,1.356-4.255,1.992
		c-20.073,12.407-38.049,27.323-53.324,45.34c-27.768,32.751-43.677,70.599-47.273,113.36c-2.504,29.773-2.198,59.48,5.628,88.665
		C83.667,434.993,231.831,497.987,351.76,431.76c1.161-0.641,2.371-1.195,4.341-2.182c-1.421,6.164-2.623,11.381-4.032,17.493
		c2.193-1.004,3.409-1.404,4.46-2.065c34.759-21.889,62.521-50.333,80.581-87.5c23.948-49.284,27.424-101.337,16.008-153.879
		C423.74,68.411,271.423-0.138,149.914,66.236c-1.735,0.948-3.502,1.836-6.19,3.241C145.072,63.591,146.135,58.949,147.417,53.352z"
		/>
	<path style="fill:#FFFFFF;" d="M147.742,53.352c-1.282,5.597-2.345,10.24-3.692,16.125c2.688-1.405,4.455-2.293,6.19-3.241
		c121.508-66.374,273.825,2.175,303.204,137.39c11.416,52.542,7.94,104.595-16.008,153.879c-18.06,37.167-45.822,65.611-80.581,87.5
		c-1.051,0.662-2.267,1.061-4.46,2.065c1.409-6.112,2.612-11.329,4.032-17.493c-1.97,0.987-3.18,1.541-4.341,2.182
		c-119.93,66.227-268.094,3.233-303.568-129.052c-7.826-29.185-8.132-58.892-5.628-88.665c3.596-42.761,19.505-80.61,47.273-113.36
		c15.275-18.016,33.251-32.933,53.324-45.34C144.515,54.708,145.687,54.304,147.742,53.352z"/>
	<path style="fill:#381D54;" d="M295.853,371.749c-1.537-5.561-2.854-10.329-3.911-14.156c-11.085,4.557-21.416,9.821-32.346,13.074
		c-19.634,5.843-39.164,4.605-58.104-3.882c-4.022-1.802-5.07-3.847-4.155-8.159c4.022-18.938,5.496-37.972,0.66-57.041
		c-0.279-1.101-0.584-2.2-0.953-3.273c-0.141-0.409-0.496-0.745-1.28-1.867c-10.031,14.374-20.336,28.048-34.696,39.237
		c-11.233-24.474-11.188-49.501-8-75.646c-6.848,2.017-13.229,3.897-20.435,6.02c2.583-22.907,11.207-42.509,24.684-60.953
		c-4.318-0.851-8.033-1.582-12.313-2.425c8.6-17.433,20.386-31.694,36.475-43.968c-2.715,12.54-2.066,23.1,9.017,30.466
		c-0.863-3.688-1.983-7.34-2.504-11.076c-0.396-2.842-0.447-5.866,0.07-8.677c1.929-10.481,9.678-14.962,19.852-11.714
		c1.925,0.615,3.791,1.412,6.75,2.526c-2.855-7.347-8.019-10.354-13.77-12.743c-0.064-0.522-0.129-1.045-0.193-1.567
		c9.518-2.98,18.886-6.659,28.597-8.733c8.676-1.853,17.733-1.913,26.618-2.803c8.444-0.847,15.166,2.465,20.869,8.423
		c1.964,2.051,4.09,3.947,6.142,5.914c0.423-0.206,0.847-0.411,1.27-0.617c-0.678-3.189-1.357-6.377-2.13-10.01
		c1.06,0.101,2.104,0.05,3.06,0.315c10.272,2.849,19.941,6.979,28.319,13.723c1.372,1.105,3.171,2.3,3.637,3.804
		c2.087,6.739,3.764,13.606,5.442,19.877c-9.571-6.646-19.486-13.531-29.927-20.782c-1.619,5.098-2.764,8.702-3.998,12.585
		c-7.412-4.512-14.032-8.921-21.033-12.609c-2.602-1.371-6.232-1.864-9.154-1.363c-11.687,2.002-22.472,6.351-32.302,14.487
		c1.779,1.269,3.45,2.461,5.889,4.201c-7.338,3.64-13.534,6.935-18.582,14.179c8.685-1.385,9.671,4.206,12.157,9.315
		c4.152,8.534,12.002,12.814,21.378,13.157c11.473,0.42,22.972,0.1,34.938,0.1c-3.391-3.476-7.263-7.189-10.832-11.173
		c-4.034-4.503-8.908-6.106-14.83-5.603c-8.386,0.711-16.068-1.291-22.792-6.594c9.195-10.97,17.784-11.241,36.392-1.385
		c3.07-1.577,6.03-3.097,8.984-4.614c0.433,0.832,0.753,1.179,0.677,1.339c-3.944,8.334-3.885,8.272,2.639,14.957
		c3.961,4.059,7.696,8.339,11.251,12.214c5.015-0.872,9.911-2.217,14.859-2.446c4.94-0.228,9.932,0.663,15.36,1.1
		c-7.379-7.753-14.509-15.245-21.639-22.736c0.488-0.609,0.976-1.218,1.463-1.827c2.682,1.534,5.365,3.069,8.229,4.708
		c3.216-0.652,5.301-7.183,9.915-2.768c3.432,3.285,3.121,6.7-0.346,10.732c2.712,2.868,5.439,5.753,8.715,9.218
		c0.712-2.164,1.13-3.439,1.533-4.662c0.495,0.043,0.948-0.045,1.057,0.11c23.756,33.619,30.481,69.919,17.278,110.311
		c-3.32-3.493-6.132-6.451-9.796-10.306c-2.303,15.433-6.161,29.046-13.822,41.332C318.501,353.32,308.57,363.376,295.853,371.749z
		 M259.347,236.473c3.939,7.437,7.849,14.35,11.279,21.493c1.686,3.513,3.859,4.258,7.365,3.406
		c11.612-2.822,20.539-10.129,29.489-17.415c0.463-0.377,0.959-1.055,0.965-1.599c0.057-4.866,0.705-9.89-0.344-14.523
		c-0.435-1.922-4.568-3-7.01-4.476c-1.528-0.924-2.933-2.232-4.585-2.728c-2.303-0.692-5.006-1.59-7.155-1.002
		C278.197,222.679,268.857,229.129,259.347,236.473z M280.304,275.826c1.464,2.813,3.629,6.564,5.392,10.496
		c1.292,2.882,2.987,3.53,5.711,2.165c4.984-2.498,9.987-4.959,15.568-7.726c0.661,5.24,1.316,10.424,1.985,15.723
		c0.727-0.154,1.281-0.112,1.604-0.364c7.536-5.873,12.39-13.801,13.033-23.026c0.299-4.285-2.699-10.475-6.201-12.837
		c-2.976-2.007-9.447-1.023-13.27,0.866C295.982,265.146,288.553,270.616,280.304,275.826z M329.221,219.413
		c-3.553,2.447-6.419,4.294-9.122,6.355c-0.928,0.707-1.827,1.855-2.097,2.959c-3.119,12.738,4.573,21.018,12.425,30.048
		C336.018,245.182,334.299,232.593,329.221,219.413z"/>
	<path style="fill:#381D54;" d="M275.942,88.95c0.774,9.938,1.424,18.283,2.181,28.002c5.622-6.151,10.342-11.313,15.061-16.476
		c0.357,0.351,0.713,0.702,1.07,1.053c-2.121,9.703-4.243,19.405-6.444,29.474c-32.998-8.196-64.709-4.734-94.758,11.657
		c-4.429-9.421-8.747-18.607-13.82-29.4c6.971,4.372,12.9,8.092,19.709,12.363c-1.41-9.288-2.683-17.679-4.166-27.451
		c10.426,7.177,19.825,13.647,29.803,20.516c3.423-9.886,6.642-19.183,10.292-29.725c5.793,9.23,11.058,17.618,16.751,26.687
		C259.717,106.764,267.383,98.347,275.942,88.95z"/>
	<path style="fill:#381D54;" d="M72.829,310.915c-0.753-1.914-1.272-3.234-1.981-5.037c6.139-2.533,12.086-4.987,18.646-7.695
		c2.058,5.397,4.004,10.501,6.332,16.607c0.85,1.886,3.041,4.724,3.251,7.701c0.293,4.166-3.506,5.749-6.959,7.069
		c-3.163,1.21-6.278,2.546-9.823,3.994c-0.737-1.682-1.35-3.081-2.18-4.974c3.77-1.562,7.329-2.713,10.52-4.515
		c1.31-0.74,1.83-2.881,2.709-4.384c-1.752-0.55-3.684-1.859-5.22-1.495c-3.426,0.811-6.654,2.456-10.383,3.927
		c-0.73-1.47-1.403-2.827-2.328-4.69c3.712-1.609,7.248-2.782,10.363-4.656c1.371-0.825,1.886-3.075,2.789-4.678
		c-1.797-0.45-3.771-1.602-5.356-1.205C79.805,307.738,76.603,309.391,72.829,310.915z"/>
	<path style="fill:#381D54;" d="M143.55,363.567c1.621,1.325,2.85,2.33,4.532,3.705c-5.246,6.563-10.357,12.957-15.852,19.832
		c3.248,2.708,6.42,5.354,10.017,8.353c-1.058,1.372-2.078,2.695-3.346,4.339c-5.002-4.042-9.737-7.868-14.855-12.003
		C130.597,379.656,136.86,371.877,143.55,363.567z"/>
	<path style="fill:#381D54;" d="M231.314,414.67c4.021-0.762,5.542,0.515,4.771,4.327c-0.451,2.227-0.616,4.51-0.988,6.755
		c-1,6.044-5.23,9.407-10.859,8.683c-6.031-0.776-9.234-4.548-8.789-10.71c0.267-3.697,0.91-7.366,1.442-11.489
		c1.883,0.305,3.394,0.549,5.301,0.857c-0.504,3.756-1.445,7.138-1.213,10.438c0.132,1.885,1.786,4.514,3.444,5.246
		c2.67,1.18,4.597-0.874,5.148-3.635C230.264,421.671,230.743,418.158,231.314,414.67z"/>
	<path style="fill:#381D54;" d="M80.265,275.156c-2.808-10.719-10.689-3.631-16.554-5.747c-0.15-0.992-0.375-2.481-0.681-4.51
		c6.849-0.815,13.35-1.59,19.846-2.363c0.527,4.169,0.976,7.722,1.475,11.667C83.317,274.445,81.972,274.759,80.265,275.156z"/>
	<path style="fill:#381D54;" d="M107.544,370.571c-0.883-1.104-1.766-2.209-2.953-3.692c5.057-4.44,9.914-8.704,14.772-12.969
		c2.65,2.944,5.212,5.791,8.254,9.171c-0.802,0.703-1.848,1.622-3.114,2.732C116.289,358.188,113.667,368.83,107.544,370.571z"/>
	<path style="fill:#381D54;" d="M87.87,342.709c-0.932-1.577-1.715-2.901-2.789-4.719c5.986-3.38,11.673-6.592,17.634-9.959
		c0.962,1.607,1.762,2.944,2.809,4.692C99.588,336.082,93.898,339.3,87.87,342.709z"/>
	<path style="fill:#381D54;" d="M109.821,322.405c1.562,2.346,3.202,3.73,3.05,4.874c-0.166,1.243-1.999,2.264-3.106,3.381
		c-1.126-1.133-2.984-2.166-3.158-3.43C106.452,326.112,108.173,324.735,109.821,322.405z"/>
	<path style="fill:#FFFFFF;" d="M259.347,236.473c9.51-7.343,18.85-13.794,30.004-16.844c2.15-0.588,4.852,0.31,7.155,1.002
		c1.652,0.496,3.056,1.804,4.585,2.728c2.442,1.476,6.575,2.554,7.01,4.476c1.049,4.633,0.401,9.658,0.344,14.523
		c-0.006,0.543-0.502,1.222-0.965,1.599c-8.95,7.286-17.877,14.593-29.489,17.415c-3.506,0.852-5.678,0.106-7.365-3.406
		C267.196,250.822,263.287,243.91,259.347,236.473z"/>
	<path style="fill:#FFFFFF;" d="M280.304,275.826c8.249-5.21,15.678-10.68,23.822-14.703c3.824-1.889,10.294-2.874,13.27-0.866
		c3.503,2.362,6.5,8.552,6.201,12.837c-0.643,9.225-5.498,17.152-13.033,23.026c-0.324,0.252-0.877,0.21-1.604,0.364
		c-0.669-5.299-1.323-10.483-1.985-15.723c-5.582,2.767-10.584,5.228-15.568,7.726c-2.724,1.365-4.418,0.717-5.711-2.165
		C283.933,282.39,281.768,278.639,280.304,275.826z"/>
	<path style="fill:#FFFFFF;" d="M329.221,219.413c5.078,13.18,6.796,25.769,1.205,39.362c-7.852-9.029-15.544-17.31-12.425-30.048
		c0.27-1.104,1.17-2.252,2.097-2.959C322.803,223.707,325.669,221.86,329.221,219.413z"/>
	<path style="fill:#381D54;" d="M206.737,410.352c-4.091-3.196-8.04-3.177-12.154-0.76c-4.031,2.368-5.692,7.666-4.254,12.44
		c1.284,4.262,5.072,6.873,10.027,6.909c0.862,0.006,1.724,0.001,2.787,0.001c-2.697,5.735-5.852,5.676-13.092,0.018
		c-1.018,0.864-2.08,1.765-3.366,2.857c6.258,8.48,17.473,9.111,20.768,1.273c2.847-6.772,4.394-14.09,6.613-21.493
		C211.078,411.154,208.279,411.557,206.737,410.352z M207.269,419.979c-2.205,1.339-4.313,3.556-6.637,3.81
		c-3.386,0.37-5.185-2.36-4.97-5.699c0.204-3.173,2.387-5.451,5.42-4.781c2.309,0.511,4.221,2.821,6.309,4.331
		C207.351,418.421,207.31,419.2,207.269,419.979z"/>
	<path style="fill:#381D54;" d="M93.381,238.815c-10.462,0-20.444,0-30.63,0c0,1.935,0,3.583,0,5.395
		c3.398,0.154,6.429,0.291,9.864,0.446c0.13,2.391,0.124,4.179,0.343,5.94c0.688,5.531,4.744,9.119,10.218,9.139
		c5.179,0.019,9.536-3.432,10.118-8.687C93.733,247.098,93.381,243.06,93.381,238.815z M85.741,252.604
		c-0.526,0.808-4.123,0.913-4.741,0.116c-1.585-2.047-2.285-4.779-3.709-8.099c4.562,0,7.268,0,11.337,0
		C87.606,247.695,87.14,250.452,85.741,252.604z"/>
	<path style="fill:#381D54;" d="M183.806,402.066c-3.369-2.835-6.916-3.606-10.841-2.185c-4.418,1.6-6.728,5.177-6.847,9.736
		c-0.108,4.111,1.543,7.792,5.554,9.511c3.562,1.527,7.373,2.474,11.59,3.844c2.542-5.64,5.232-11.609,7.93-17.594
		C188.403,404.18,185.672,403.637,183.806,402.066z M177.431,415.051c-1.872,0.002-4.858-2.643-5.363-4.629
		c-0.765-3.007,1.506-6.013,4.831-5.746c2.269,0.182,4.372,2.422,6.55,3.742c0.037,0.794,0.074,1.589,0.111,2.383
		C181.516,412.334,179.475,415.049,177.431,415.051z"/>
	<path style="fill:#381D54;" d="M163.397,405.123c3.973-4.95,4.035-9.933,0.41-13.817c-3.72-3.985-9.838-4.513-14.164-1.222
		c-4.37,3.325-5.706,9.449-3.041,13.936c2.819,4.746,8.446,6.757,14.415,4.105c-2.081-1.37-3.399-2.678-4.975-3.185
		c-3.337-1.075-5.81-2.52-5.346-7.266C155.145,400.284,159.14,402.627,163.397,405.123z M161.288,399.48
		c-3.159-2.021-5.532-3.539-8.121-5.196C158.127,391.827,160.428,393.131,161.288,399.48z"/>
	<path style="fill:#381D54;" d="M252.412,430.417c-3.746,1.835-5.843,0.746-7.672-3.42c4.847,0,9.468,0,14.364,0
		c0.062-7.363-2.743-11.259-8.175-12.302c-4.651-0.893-9.706,1.799-11.563,6.157c-2.054,4.821-0.438,10.68,3.705,13.437
		c4.369,2.908,10.474,2.078,14.508-2.018C256.552,429.724,255.263,429.021,252.412,430.417z M253.722,422.668
		c-3.102,0-5.826,0-8.962,0C247.891,418.267,249.843,418.237,253.722,422.668z"/>
	<path style="fill:#381D54;" d="M113.896,345.133c-2.186-4.874-7.238-7.331-12.441-6.05c-5.052,1.243-8.424,5.963-8.039,11.249
		c0.396,5.429,4.347,9.391,11.393,10.012c-1.244-2.183-1.741-4.007-2.933-4.97c-3.635-2.934-4.239-4.727-1.825-8.474
		c2.814,3.871,5.55,7.635,8.461,11.639C114.43,354.581,116.112,350.075,113.896,345.133z M108.043,351.392
		c-1.528-2.236-3.057-4.471-4.585-6.707c0.276-0.399,0.552-0.799,0.828-1.198c1.568,0.914,3.603,1.493,4.567,2.84
		c0.887,1.238,0.621,3.301,0.863,5.001C109.158,351.349,108.6,351.371,108.043,351.392z"/>
	<path style="fill:#381D54;" d="M87.807,288.016c-0.228-5.095-3.595-8.967-8.505-9.78c-5.309-0.879-10.189,1.59-12.037,6.09
		c-2.141,5.212-0.197,10.838,5.179,14.384c0.764-1.121,1.53-2.246,2.272-3.335c-2.756-3.487-5.239-6.766-0.604-11.243
		c1.377,5.106,2.615,9.701,3.935,14.595C85.175,296.975,88.059,293.642,87.807,288.016z M80.379,292.516
		c-0.708-3.181-1.324-5.95-2.043-9.182C83.747,285.838,84.289,288.294,80.379,292.516z"/>
</g>
</svg>
